<?xml version="1.0" encoding="utf-8" standalone="no"?>
<!DOCTYPE svg PUBLIC "-//W3C//DTD SVG 1.1//EN"
  "http://www.w3.org/Graphics/SVG/1.1/DTD/svg11.dtd">
<!-- Created with matplotlib (https://matplotlib.org/) -->
<svg height="444.96pt" version="1.1" viewBox="0 0 720 444.96" width="720pt" xmlns="http://www.w3.org/2000/svg" xmlns:xlink="http://www.w3.org/1999/xlink">
 <metadata>
  <rdf:RDF xmlns:cc="http://creativecommons.org/ns#" xmlns:dc="http://purl.org/dc/elements/1.1/" xmlns:rdf="http://www.w3.org/1999/02/22-rdf-syntax-ns#">
   <cc:Work>
    <dc:type rdf:resource="http://purl.org/dc/dcmitype/StillImage"/>
    <dc:date>2021-01-29T22:31:54.149520</dc:date>
    <dc:format>image/svg+xml</dc:format>
    <dc:creator>
     <cc:Agent>
      <dc:title>Matplotlib v3.3.0, https://matplotlib.org/</dc:title>
     </cc:Agent>
    </dc:creator>
   </cc:Work>
  </rdf:RDF>
 </metadata>
 <defs>
  <style type="text/css">*{stroke-linecap:butt;stroke-linejoin:round;}</style>
 </defs>
 <g id="figure_1">
  <g id="patch_1">
   <path d="M 0 444.96 
L 720 444.96 
L 720 0 
L 0 0 
z
" style="fill:#ffffff;"/>
  </g>
  <g id="axes_1">
   <g id="patch_2">
    <path d="M 90 396.0144 
L 648 396.0144 
L 648 53.3952 
L 90 53.3952 
z
" style="fill:#ffffff;"/>
   </g>
   <g id="matplotlib.axis_1">
    <g id="xtick_1">
     <g id="line2d_1">
      <defs>
       <path d="M 0 0 
L 0 3.5 
" id="m3908176319" style="stroke:#000000;stroke-width:0.8;"/>
      </defs>
      <g>
       <use style="stroke:#000000;stroke-width:0.8;" x="115.363636" xlink:href="#m3908176319" y="396.0144"/>
      </g>
     </g>
     <g id="text_1">
      <!-- 0.0 -->
      <g transform="translate(107.412074 410.612838)scale(0.1 -0.1)">
       <defs>
        <path d="M 31.78125 66.40625 
Q 24.171875 66.40625 20.328125 58.90625 
Q 16.5 51.421875 16.5 36.375 
Q 16.5 21.390625 20.328125 13.890625 
Q 24.171875 6.390625 31.78125 6.390625 
Q 39.453125 6.390625 43.28125 13.890625 
Q 47.125 21.390625 47.125 36.375 
Q 47.125 51.421875 43.28125 58.90625 
Q 39.453125 66.40625 31.78125 66.40625 
z
M 31.78125 74.21875 
Q 44.046875 74.21875 50.515625 64.515625 
Q 56.984375 54.828125 56.984375 36.375 
Q 56.984375 17.96875 50.515625 8.265625 
Q 44.046875 -1.421875 31.78125 -1.421875 
Q 19.53125 -1.421875 13.0625 8.265625 
Q 6.59375 17.96875 6.59375 36.375 
Q 6.59375 54.828125 13.0625 64.515625 
Q 19.53125 74.21875 31.78125 74.21875 
z
" id="DejaVuSans-48"/>
        <path d="M 10.6875 12.40625 
L 21 12.40625 
L 21 0 
L 10.6875 0 
z
" id="DejaVuSans-46"/>
       </defs>
       <use xlink:href="#DejaVuSans-48"/>
       <use x="63.623047" xlink:href="#DejaVuSans-46"/>
       <use x="95.410156" xlink:href="#DejaVuSans-48"/>
      </g>
     </g>
    </g>
    <g id="xtick_2">
     <g id="line2d_2">
      <g>
       <use style="stroke:#000000;stroke-width:0.8;" x="200.050235" xlink:href="#m3908176319" y="396.0144"/>
      </g>
     </g>
     <g id="text_2">
      <!-- 0.5 -->
      <g transform="translate(192.098673 410.612838)scale(0.1 -0.1)">
       <defs>
        <path d="M 10.796875 72.90625 
L 49.515625 72.90625 
L 49.515625 64.59375 
L 19.828125 64.59375 
L 19.828125 46.734375 
Q 21.96875 47.46875 24.109375 47.828125 
Q 26.265625 48.1875 28.421875 48.1875 
Q 40.625 48.1875 47.75 41.5 
Q 54.890625 34.8125 54.890625 23.390625 
Q 54.890625 11.625 47.5625 5.09375 
Q 40.234375 -1.421875 26.90625 -1.421875 
Q 22.3125 -1.421875 17.546875 -0.640625 
Q 12.796875 0.140625 7.71875 1.703125 
L 7.71875 11.625 
Q 12.109375 9.234375 16.796875 8.0625 
Q 21.484375 6.890625 26.703125 6.890625 
Q 35.15625 6.890625 40.078125 11.328125 
Q 45.015625 15.765625 45.015625 23.390625 
Q 45.015625 31 40.078125 35.4375 
Q 35.15625 39.890625 26.703125 39.890625 
Q 22.75 39.890625 18.8125 39.015625 
Q 14.890625 38.140625 10.796875 36.28125 
z
" id="DejaVuSans-53"/>
       </defs>
       <use xlink:href="#DejaVuSans-48"/>
       <use x="63.623047" xlink:href="#DejaVuSans-46"/>
       <use x="95.410156" xlink:href="#DejaVuSans-53"/>
      </g>
     </g>
    </g>
    <g id="xtick_3">
     <g id="line2d_3">
      <g>
       <use style="stroke:#000000;stroke-width:0.8;" x="284.736834" xlink:href="#m3908176319" y="396.0144"/>
      </g>
     </g>
     <g id="text_3">
      <!-- 1.0 -->
      <g transform="translate(276.785272 410.612838)scale(0.1 -0.1)">
       <defs>
        <path d="M 12.40625 8.296875 
L 28.515625 8.296875 
L 28.515625 63.921875 
L 10.984375 60.40625 
L 10.984375 69.390625 
L 28.421875 72.90625 
L 38.28125 72.90625 
L 38.28125 8.296875 
L 54.390625 8.296875 
L 54.390625 0 
L 12.40625 0 
z
" id="DejaVuSans-49"/>
       </defs>
       <use xlink:href="#DejaVuSans-49"/>
       <use x="63.623047" xlink:href="#DejaVuSans-46"/>
       <use x="95.410156" xlink:href="#DejaVuSans-48"/>
      </g>
     </g>
    </g>
    <g id="xtick_4">
     <g id="line2d_4">
      <g>
       <use style="stroke:#000000;stroke-width:0.8;" x="369.423433" xlink:href="#m3908176319" y="396.0144"/>
      </g>
     </g>
     <g id="text_4">
      <!-- 1.5 -->
      <g transform="translate(361.47187 410.612838)scale(0.1 -0.1)">
       <use xlink:href="#DejaVuSans-49"/>
       <use x="63.623047" xlink:href="#DejaVuSans-46"/>
       <use x="95.410156" xlink:href="#DejaVuSans-53"/>
      </g>
     </g>
    </g>
    <g id="xtick_5">
     <g id="line2d_5">
      <g>
       <use style="stroke:#000000;stroke-width:0.8;" x="454.110032" xlink:href="#m3908176319" y="396.0144"/>
      </g>
     </g>
     <g id="text_5">
      <!-- 2.0 -->
      <g transform="translate(446.158469 410.612838)scale(0.1 -0.1)">
       <defs>
        <path d="M 19.1875 8.296875 
L 53.609375 8.296875 
L 53.609375 0 
L 7.328125 0 
L 7.328125 8.296875 
Q 12.9375 14.109375 22.625 23.890625 
Q 32.328125 33.6875 34.8125 36.53125 
Q 39.546875 41.84375 41.421875 45.53125 
Q 43.3125 49.21875 43.3125 52.78125 
Q 43.3125 58.59375 39.234375 62.25 
Q 35.15625 65.921875 28.609375 65.921875 
Q 23.96875 65.921875 18.8125 64.3125 
Q 13.671875 62.703125 7.8125 59.421875 
L 7.8125 69.390625 
Q 13.765625 71.78125 18.9375 73 
Q 24.125 74.21875 28.421875 74.21875 
Q 39.75 74.21875 46.484375 68.546875 
Q 53.21875 62.890625 53.21875 53.421875 
Q 53.21875 48.921875 51.53125 44.890625 
Q 49.859375 40.875 45.40625 35.40625 
Q 44.1875 33.984375 37.640625 27.21875 
Q 31.109375 20.453125 19.1875 8.296875 
z
" id="DejaVuSans-50"/>
       </defs>
       <use xlink:href="#DejaVuSans-50"/>
       <use x="63.623047" xlink:href="#DejaVuSans-46"/>
       <use x="95.410156" xlink:href="#DejaVuSans-48"/>
      </g>
     </g>
    </g>
    <g id="xtick_6">
     <g id="line2d_6">
      <g>
       <use style="stroke:#000000;stroke-width:0.8;" x="538.796631" xlink:href="#m3908176319" y="396.0144"/>
      </g>
     </g>
     <g id="text_6">
      <!-- 2.5 -->
      <g transform="translate(530.845068 410.612838)scale(0.1 -0.1)">
       <use xlink:href="#DejaVuSans-50"/>
       <use x="63.623047" xlink:href="#DejaVuSans-46"/>
       <use x="95.410156" xlink:href="#DejaVuSans-53"/>
      </g>
     </g>
    </g>
    <g id="xtick_7">
     <g id="line2d_7">
      <g>
       <use style="stroke:#000000;stroke-width:0.8;" x="623.48323" xlink:href="#m3908176319" y="396.0144"/>
      </g>
     </g>
     <g id="text_7">
      <!-- 3.0 -->
      <g transform="translate(615.531667 410.612838)scale(0.1 -0.1)">
       <defs>
        <path d="M 40.578125 39.3125 
Q 47.65625 37.796875 51.625 33 
Q 55.609375 28.21875 55.609375 21.1875 
Q 55.609375 10.40625 48.1875 4.484375 
Q 40.765625 -1.421875 27.09375 -1.421875 
Q 22.515625 -1.421875 17.65625 -0.515625 
Q 12.796875 0.390625 7.625 2.203125 
L 7.625 11.71875 
Q 11.71875 9.328125 16.59375 8.109375 
Q 21.484375 6.890625 26.8125 6.890625 
Q 36.078125 6.890625 40.9375 10.546875 
Q 45.796875 14.203125 45.796875 21.1875 
Q 45.796875 27.640625 41.28125 31.265625 
Q 36.765625 34.90625 28.71875 34.90625 
L 20.21875 34.90625 
L 20.21875 43.015625 
L 29.109375 43.015625 
Q 36.375 43.015625 40.234375 45.921875 
Q 44.09375 48.828125 44.09375 54.296875 
Q 44.09375 59.90625 40.109375 62.90625 
Q 36.140625 65.921875 28.71875 65.921875 
Q 24.65625 65.921875 20.015625 65.03125 
Q 15.375 64.15625 9.8125 62.3125 
L 9.8125 71.09375 
Q 15.4375 72.65625 20.34375 73.4375 
Q 25.25 74.21875 29.59375 74.21875 
Q 40.828125 74.21875 47.359375 69.109375 
Q 53.90625 64.015625 53.90625 55.328125 
Q 53.90625 49.265625 50.4375 45.09375 
Q 46.96875 40.921875 40.578125 39.3125 
z
" id="DejaVuSans-51"/>
       </defs>
       <use xlink:href="#DejaVuSans-51"/>
       <use x="63.623047" xlink:href="#DejaVuSans-46"/>
       <use x="95.410156" xlink:href="#DejaVuSans-48"/>
      </g>
     </g>
    </g>
    <g id="text_8">
     <!-- Synonymous nucleotide subsititution (${K_{s}}$) -->
     <g transform="translate(232.725 436.517525)scale(0.15 -0.15)">
      <defs>
       <path d="M 4.5 23 
L 13.421875 23.78125 
Q 14.0625 18.40625 16.375 14.96875 
Q 18.703125 11.53125 23.578125 9.40625 
Q 28.46875 7.28125 34.578125 7.28125 
Q 39.984375 7.28125 44.140625 8.890625 
Q 48.296875 10.5 50.3125 13.296875 
Q 52.34375 16.109375 52.34375 19.4375 
Q 52.34375 22.796875 50.390625 25.3125 
Q 48.4375 27.828125 43.953125 29.546875 
Q 41.0625 30.671875 31.203125 33.03125 
Q 21.34375 35.40625 17.390625 37.5 
Q 12.25 40.1875 9.734375 44.15625 
Q 7.234375 48.140625 7.234375 53.078125 
Q 7.234375 58.5 10.296875 63.203125 
Q 13.375 67.921875 19.28125 70.359375 
Q 25.203125 72.796875 32.421875 72.796875 
Q 40.375 72.796875 46.453125 70.234375 
Q 52.546875 67.671875 55.8125 62.6875 
Q 59.078125 57.71875 59.328125 51.421875 
L 50.25 50.734375 
Q 49.515625 57.515625 45.28125 60.984375 
Q 41.0625 64.453125 32.8125 64.453125 
Q 24.21875 64.453125 20.28125 61.296875 
Q 16.359375 58.15625 16.359375 53.71875 
Q 16.359375 49.859375 19.140625 47.359375 
Q 21.875 44.875 33.421875 42.265625 
Q 44.96875 39.65625 49.265625 37.703125 
Q 55.515625 34.8125 58.484375 30.390625 
Q 61.46875 25.984375 61.46875 20.21875 
Q 61.46875 14.5 58.203125 9.4375 
Q 54.9375 4.390625 48.796875 1.578125 
Q 42.671875 -1.21875 35.015625 -1.21875 
Q 25.296875 -1.21875 18.71875 1.609375 
Q 12.15625 4.4375 8.421875 10.125 
Q 4.6875 15.828125 4.5 23 
z
" id="ArialMT-83"/>
       <path d="M 6.203125 -19.96875 
L 5.21875 -11.71875 
Q 8.109375 -12.5 10.25 -12.5 
Q 13.1875 -12.5 14.9375 -11.515625 
Q 16.703125 -10.546875 17.828125 -8.796875 
Q 18.65625 -7.46875 20.515625 -2.25 
Q 20.75 -1.515625 21.296875 -0.09375 
L 1.609375 51.859375 
L 11.078125 51.859375 
L 21.875 21.828125 
Q 23.96875 16.109375 25.640625 9.8125 
Q 27.15625 15.875 29.25 21.625 
L 40.328125 51.859375 
L 49.125 51.859375 
L 29.390625 -0.875 
Q 26.21875 -9.421875 24.46875 -12.640625 
Q 22.125 -17 19.09375 -19.015625 
Q 16.0625 -21.046875 11.859375 -21.046875 
Q 9.328125 -21.046875 6.203125 -19.96875 
z
" id="ArialMT-121"/>
       <path d="M 6.59375 0 
L 6.59375 51.859375 
L 14.5 51.859375 
L 14.5 44.484375 
Q 20.21875 53.03125 31 53.03125 
Q 35.6875 53.03125 39.625 51.34375 
Q 43.5625 49.65625 45.515625 46.921875 
Q 47.46875 44.1875 48.25 40.4375 
Q 48.734375 37.984375 48.734375 31.890625 
L 48.734375 0 
L 39.9375 0 
L 39.9375 31.546875 
Q 39.9375 36.921875 38.90625 39.578125 
Q 37.890625 42.234375 35.28125 43.8125 
Q 32.671875 45.40625 29.15625 45.40625 
Q 23.53125 45.40625 19.453125 41.84375 
Q 15.375 38.28125 15.375 28.328125 
L 15.375 0 
z
" id="ArialMT-110"/>
       <path d="M 3.328125 25.921875 
Q 3.328125 40.328125 11.328125 47.265625 
Q 18.015625 53.03125 27.640625 53.03125 
Q 38.328125 53.03125 45.109375 46.015625 
Q 51.90625 39.015625 51.90625 26.65625 
Q 51.90625 16.65625 48.90625 10.90625 
Q 45.90625 5.171875 40.15625 2 
Q 34.421875 -1.171875 27.640625 -1.171875 
Q 16.75 -1.171875 10.03125 5.8125 
Q 3.328125 12.796875 3.328125 25.921875 
z
M 12.359375 25.921875 
Q 12.359375 15.96875 16.703125 11.015625 
Q 21.046875 6.0625 27.640625 6.0625 
Q 34.1875 6.0625 38.53125 11.03125 
Q 42.875 16.015625 42.875 26.21875 
Q 42.875 35.84375 38.5 40.796875 
Q 34.125 45.75 27.640625 45.75 
Q 21.046875 45.75 16.703125 40.8125 
Q 12.359375 35.890625 12.359375 25.921875 
z
" id="ArialMT-111"/>
       <path d="M 6.59375 0 
L 6.59375 51.859375 
L 14.453125 51.859375 
L 14.453125 44.578125 
Q 16.890625 48.390625 20.9375 50.703125 
Q 25 53.03125 30.171875 53.03125 
Q 35.9375 53.03125 39.625 50.640625 
Q 43.3125 48.25 44.828125 43.953125 
Q 50.984375 53.03125 60.84375 53.03125 
Q 68.5625 53.03125 72.703125 48.75 
Q 76.859375 44.484375 76.859375 35.59375 
L 76.859375 0 
L 68.109375 0 
L 68.109375 32.671875 
Q 68.109375 37.9375 67.25 40.25 
Q 66.40625 42.578125 64.15625 43.984375 
Q 61.921875 45.40625 58.890625 45.40625 
Q 53.421875 45.40625 49.796875 41.765625 
Q 46.1875 38.140625 46.1875 30.125 
L 46.1875 0 
L 37.40625 0 
L 37.40625 33.6875 
Q 37.40625 39.546875 35.25 42.46875 
Q 33.109375 45.40625 28.21875 45.40625 
Q 24.515625 45.40625 21.359375 43.453125 
Q 18.21875 41.5 16.796875 37.734375 
Q 15.375 33.984375 15.375 26.90625 
L 15.375 0 
z
" id="ArialMT-109"/>
       <path d="M 40.578125 0 
L 40.578125 7.625 
Q 34.515625 -1.171875 24.125 -1.171875 
Q 19.53125 -1.171875 15.546875 0.578125 
Q 11.578125 2.34375 9.640625 5 
Q 7.71875 7.671875 6.9375 11.53125 
Q 6.390625 14.109375 6.390625 19.734375 
L 6.390625 51.859375 
L 15.1875 51.859375 
L 15.1875 23.09375 
Q 15.1875 16.21875 15.71875 13.8125 
Q 16.546875 10.359375 19.234375 8.375 
Q 21.921875 6.390625 25.875 6.390625 
Q 29.828125 6.390625 33.296875 8.421875 
Q 36.765625 10.453125 38.203125 13.9375 
Q 39.65625 17.4375 39.65625 24.078125 
L 39.65625 51.859375 
L 48.4375 51.859375 
L 48.4375 0 
z
" id="ArialMT-117"/>
       <path d="M 3.078125 15.484375 
L 11.765625 16.84375 
Q 12.5 11.625 15.84375 8.84375 
Q 19.1875 6.0625 25.203125 6.0625 
Q 31.25 6.0625 34.171875 8.515625 
Q 37.109375 10.984375 37.109375 14.3125 
Q 37.109375 17.28125 34.515625 19 
Q 32.71875 20.171875 25.53125 21.96875 
Q 15.875 24.421875 12.140625 26.203125 
Q 8.40625 27.984375 6.46875 31.125 
Q 4.546875 34.28125 4.546875 38.09375 
Q 4.546875 41.546875 6.125 44.5 
Q 7.71875 47.46875 10.453125 49.421875 
Q 12.5 50.921875 16.03125 51.96875 
Q 19.578125 53.03125 23.640625 53.03125 
Q 29.734375 53.03125 34.34375 51.265625 
Q 38.96875 49.515625 41.15625 46.5 
Q 43.359375 43.5 44.1875 38.484375 
L 35.59375 37.3125 
Q 35.015625 41.3125 32.203125 43.546875 
Q 29.390625 45.796875 24.265625 45.796875 
Q 18.21875 45.796875 15.625 43.796875 
Q 13.03125 41.796875 13.03125 39.109375 
Q 13.03125 37.40625 14.109375 36.03125 
Q 15.1875 34.625 17.484375 33.6875 
Q 18.796875 33.203125 25.25 31.453125 
Q 34.578125 28.953125 38.25 27.359375 
Q 41.9375 25.78125 44.03125 22.75 
Q 46.140625 19.734375 46.140625 15.234375 
Q 46.140625 10.84375 43.578125 6.953125 
Q 41.015625 3.078125 36.171875 0.953125 
Q 31.34375 -1.171875 25.25 -1.171875 
Q 15.140625 -1.171875 9.84375 3.03125 
Q 4.546875 7.234375 3.078125 15.484375 
z
" id="ArialMT-115"/>
       <path id="ArialMT-32"/>
       <path d="M 40.4375 19 
L 49.078125 17.875 
Q 47.65625 8.9375 41.8125 3.875 
Q 35.984375 -1.171875 27.484375 -1.171875 
Q 16.84375 -1.171875 10.375 5.78125 
Q 3.90625 12.75 3.90625 25.734375 
Q 3.90625 34.125 6.6875 40.421875 
Q 9.46875 46.734375 15.15625 49.875 
Q 20.84375 53.03125 27.546875 53.03125 
Q 35.984375 53.03125 41.359375 48.75 
Q 46.734375 44.484375 48.25 36.625 
L 39.703125 35.296875 
Q 38.484375 40.53125 35.375 43.15625 
Q 32.28125 45.796875 27.875 45.796875 
Q 21.234375 45.796875 17.078125 41.03125 
Q 12.9375 36.28125 12.9375 25.984375 
Q 12.9375 15.53125 16.9375 10.796875 
Q 20.953125 6.0625 27.390625 6.0625 
Q 32.5625 6.0625 36.03125 9.234375 
Q 39.5 12.40625 40.4375 19 
z
" id="ArialMT-99"/>
       <path d="M 6.390625 0 
L 6.390625 71.578125 
L 15.1875 71.578125 
L 15.1875 0 
z
" id="ArialMT-108"/>
       <path d="M 42.09375 16.703125 
L 51.171875 15.578125 
Q 49.03125 7.625 43.21875 3.21875 
Q 37.40625 -1.171875 28.375 -1.171875 
Q 17 -1.171875 10.328125 5.828125 
Q 3.65625 12.84375 3.65625 25.484375 
Q 3.65625 38.578125 10.390625 45.796875 
Q 17.140625 53.03125 27.875 53.03125 
Q 38.28125 53.03125 44.875 45.953125 
Q 51.46875 38.875 51.46875 26.03125 
Q 51.46875 25.25 51.421875 23.6875 
L 12.75 23.6875 
Q 13.234375 15.140625 17.578125 10.59375 
Q 21.921875 6.0625 28.421875 6.0625 
Q 33.25 6.0625 36.671875 8.59375 
Q 40.09375 11.140625 42.09375 16.703125 
z
M 13.234375 30.90625 
L 42.1875 30.90625 
Q 41.609375 37.453125 38.875 40.71875 
Q 34.671875 45.796875 27.984375 45.796875 
Q 21.921875 45.796875 17.796875 41.75 
Q 13.671875 37.703125 13.234375 30.90625 
z
" id="ArialMT-101"/>
       <path d="M 25.78125 7.859375 
L 27.046875 0.09375 
Q 23.34375 -0.6875 20.40625 -0.6875 
Q 15.625 -0.6875 12.984375 0.828125 
Q 10.359375 2.34375 9.28125 4.8125 
Q 8.203125 7.28125 8.203125 15.1875 
L 8.203125 45.015625 
L 1.765625 45.015625 
L 1.765625 51.859375 
L 8.203125 51.859375 
L 8.203125 64.703125 
L 16.9375 69.96875 
L 16.9375 51.859375 
L 25.78125 51.859375 
L 25.78125 45.015625 
L 16.9375 45.015625 
L 16.9375 14.703125 
Q 16.9375 10.9375 17.40625 9.859375 
Q 17.875 8.796875 18.921875 8.15625 
Q 19.96875 7.515625 21.921875 7.515625 
Q 23.390625 7.515625 25.78125 7.859375 
z
" id="ArialMT-116"/>
       <path d="M 6.640625 61.46875 
L 6.640625 71.578125 
L 15.4375 71.578125 
L 15.4375 61.46875 
z
M 6.640625 0 
L 6.640625 51.859375 
L 15.4375 51.859375 
L 15.4375 0 
z
" id="ArialMT-105"/>
       <path d="M 40.234375 0 
L 40.234375 6.546875 
Q 35.296875 -1.171875 25.734375 -1.171875 
Q 19.53125 -1.171875 14.328125 2.25 
Q 9.125 5.671875 6.265625 11.796875 
Q 3.421875 17.921875 3.421875 25.875 
Q 3.421875 33.640625 6 39.96875 
Q 8.59375 46.296875 13.765625 49.65625 
Q 18.953125 53.03125 25.34375 53.03125 
Q 30.03125 53.03125 33.6875 51.046875 
Q 37.359375 49.078125 39.65625 45.90625 
L 39.65625 71.578125 
L 48.390625 71.578125 
L 48.390625 0 
z
M 12.453125 25.875 
Q 12.453125 15.921875 16.640625 10.984375 
Q 20.84375 6.0625 26.5625 6.0625 
Q 32.328125 6.0625 36.34375 10.765625 
Q 40.375 15.484375 40.375 25.140625 
Q 40.375 35.796875 36.265625 40.765625 
Q 32.171875 45.75 26.171875 45.75 
Q 20.3125 45.75 16.375 40.96875 
Q 12.453125 36.1875 12.453125 25.875 
z
" id="ArialMT-100"/>
       <path d="M 14.703125 0 
L 6.546875 0 
L 6.546875 71.578125 
L 15.328125 71.578125 
L 15.328125 46.046875 
Q 20.90625 53.03125 29.546875 53.03125 
Q 34.328125 53.03125 38.59375 51.09375 
Q 42.875 49.171875 45.625 45.671875 
Q 48.390625 42.1875 49.953125 37.25 
Q 51.515625 32.328125 51.515625 26.703125 
Q 51.515625 13.375 44.921875 6.09375 
Q 38.328125 -1.171875 29.109375 -1.171875 
Q 19.921875 -1.171875 14.703125 6.5 
z
M 14.59375 26.3125 
Q 14.59375 17 17.140625 12.84375 
Q 21.296875 6.0625 28.375 6.0625 
Q 34.125 6.0625 38.328125 11.0625 
Q 42.53125 16.0625 42.53125 25.984375 
Q 42.53125 36.140625 38.5 40.96875 
Q 34.46875 45.796875 28.765625 45.796875 
Q 23 45.796875 18.796875 40.796875 
Q 14.59375 35.796875 14.59375 26.3125 
z
" id="ArialMT-98"/>
       <path d="M 23.390625 -21.046875 
Q 16.109375 -11.859375 11.078125 0.4375 
Q 6.0625 12.75 6.0625 25.921875 
Q 6.0625 37.546875 9.8125 48.1875 
Q 14.203125 60.546875 23.390625 72.796875 
L 29.6875 72.796875 
Q 23.78125 62.640625 21.875 58.296875 
Q 18.890625 51.5625 17.1875 44.234375 
Q 15.09375 35.109375 15.09375 25.875 
Q 15.09375 2.390625 29.6875 -21.046875 
z
" id="ArialMT-40"/>
       <path d="M 16.890625 72.90625 
L 26.8125 72.90625 
L 20.796875 42.1875 
L 59.078125 72.90625 
L 72.21875 72.90625 
L 28.90625 38.09375 
L 60.59375 0 
L 48.578125 0 
L 19.484375 35.5 
L 12.59375 0 
L 2.6875 0 
z
" id="DejaVuSans-Oblique-75"/>
       <path d="M 50 53.078125 
L 48.296875 44.578125 
Q 44.734375 46.53125 40.765625 47.5 
Q 36.8125 48.484375 32.625 48.484375 
Q 25.53125 48.484375 21.453125 46.0625 
Q 17.390625 43.65625 17.390625 39.5 
Q 17.390625 34.671875 26.859375 32.078125 
Q 27.59375 31.890625 27.9375 31.78125 
L 30.8125 30.90625 
Q 39.796875 28.421875 42.796875 25.6875 
Q 45.796875 22.953125 45.796875 18.21875 
Q 45.796875 9.515625 38.890625 4.046875 
Q 31.984375 -1.421875 20.796875 -1.421875 
Q 16.453125 -1.421875 11.671875 -0.578125 
Q 6.890625 0.25 1.125 2 
L 2.875 11.28125 
Q 7.8125 8.734375 12.59375 7.421875 
Q 17.390625 6.109375 21.78125 6.109375 
Q 28.375 6.109375 32.5 8.9375 
Q 36.625 11.765625 36.625 16.109375 
Q 36.625 20.796875 25.78125 23.6875 
L 24.859375 23.921875 
L 21.78125 24.703125 
Q 14.9375 26.515625 11.765625 29.46875 
Q 8.59375 32.421875 8.59375 37.015625 
Q 8.59375 45.75 15.15625 50.875 
Q 21.734375 56 33.015625 56 
Q 37.453125 56 41.671875 55.265625 
Q 45.90625 54.546875 50 53.078125 
z
" id="DejaVuSans-Oblique-115"/>
       <path d="M 12.359375 -21.046875 
L 6.0625 -21.046875 
Q 20.65625 2.390625 20.65625 25.875 
Q 20.65625 35.0625 18.5625 44.09375 
Q 16.890625 51.421875 13.921875 58.15625 
Q 12.015625 62.546875 6.0625 72.796875 
L 12.359375 72.796875 
Q 21.53125 60.546875 25.921875 48.1875 
Q 29.6875 37.546875 29.6875 25.921875 
Q 29.6875 12.75 24.625 0.4375 
Q 19.578125 -11.859375 12.359375 -21.046875 
z
" id="ArialMT-41"/>
      </defs>
      <use transform="translate(0 0.09375)" xlink:href="#ArialMT-83"/>
      <use transform="translate(66.699219 0.09375)" xlink:href="#ArialMT-121"/>
      <use transform="translate(116.699219 0.09375)" xlink:href="#ArialMT-110"/>
      <use transform="translate(172.314453 0.09375)" xlink:href="#ArialMT-111"/>
      <use transform="translate(227.929688 0.09375)" xlink:href="#ArialMT-110"/>
      <use transform="translate(283.544922 0.09375)" xlink:href="#ArialMT-121"/>
      <use transform="translate(333.544922 0.09375)" xlink:href="#ArialMT-109"/>
      <use transform="translate(416.845703 0.09375)" xlink:href="#ArialMT-111"/>
      <use transform="translate(472.460938 0.09375)" xlink:href="#ArialMT-117"/>
      <use transform="translate(528.076172 0.09375)" xlink:href="#ArialMT-115"/>
      <use transform="translate(578.076172 0.09375)" xlink:href="#ArialMT-32"/>
      <use transform="translate(605.859375 0.09375)" xlink:href="#ArialMT-110"/>
      <use transform="translate(661.474609 0.09375)" xlink:href="#ArialMT-117"/>
      <use transform="translate(717.089844 0.09375)" xlink:href="#ArialMT-99"/>
      <use transform="translate(767.089844 0.09375)" xlink:href="#ArialMT-108"/>
      <use transform="translate(789.306641 0.09375)" xlink:href="#ArialMT-101"/>
      <use transform="translate(844.921875 0.09375)" xlink:href="#ArialMT-111"/>
      <use transform="translate(900.537109 0.09375)" xlink:href="#ArialMT-116"/>
      <use transform="translate(928.320312 0.09375)" xlink:href="#ArialMT-105"/>
      <use transform="translate(950.537109 0.09375)" xlink:href="#ArialMT-100"/>
      <use transform="translate(1006.152344 0.09375)" xlink:href="#ArialMT-101"/>
      <use transform="translate(1061.767578 0.09375)" xlink:href="#ArialMT-32"/>
      <use transform="translate(1089.550781 0.09375)" xlink:href="#ArialMT-115"/>
      <use transform="translate(1139.550781 0.09375)" xlink:href="#ArialMT-117"/>
      <use transform="translate(1195.166016 0.09375)" xlink:href="#ArialMT-98"/>
      <use transform="translate(1250.78125 0.09375)" xlink:href="#ArialMT-115"/>
      <use transform="translate(1300.78125 0.09375)" xlink:href="#ArialMT-105"/>
      <use transform="translate(1322.998047 0.09375)" xlink:href="#ArialMT-116"/>
      <use transform="translate(1350.78125 0.09375)" xlink:href="#ArialMT-105"/>
      <use transform="translate(1372.998047 0.09375)" xlink:href="#ArialMT-116"/>
      <use transform="translate(1400.78125 0.09375)" xlink:href="#ArialMT-117"/>
      <use transform="translate(1456.396484 0.09375)" xlink:href="#ArialMT-116"/>
      <use transform="translate(1484.179688 0.09375)" xlink:href="#ArialMT-105"/>
      <use transform="translate(1506.396484 0.09375)" xlink:href="#ArialMT-111"/>
      <use transform="translate(1562.011719 0.09375)" xlink:href="#ArialMT-110"/>
      <use transform="translate(1617.626953 0.09375)" xlink:href="#ArialMT-32"/>
      <use transform="translate(1645.410156 0.09375)" xlink:href="#ArialMT-40"/>
      <use transform="translate(1678.710938 0.09375)" xlink:href="#DejaVuSans-Oblique-75"/>
      <use transform="translate(1744.287109 -16.3125)scale(0.7)" xlink:href="#DejaVuSans-Oblique-115"/>
      <use transform="translate(1783.491211 0.09375)" xlink:href="#ArialMT-41"/>
     </g>
    </g>
   </g>
   <g id="matplotlib.axis_2">
    <g id="ytick_1">
     <g id="line2d_8">
      <defs>
       <path d="M 0 0 
L -3.5 0 
" id="m6e51268fc9" style="stroke:#000000;stroke-width:0.8;"/>
      </defs>
      <g>
       <use style="stroke:#000000;stroke-width:0.8;" x="90" xlink:href="#m6e51268fc9" y="380.4408"/>
      </g>
     </g>
     <g id="text_9">
      <!-- 0 -->
      <g transform="translate(80.1375 384.240019)scale(0.1 -0.1)">
       <use xlink:href="#DejaVuSans-48"/>
      </g>
     </g>
    </g>
    <g id="ytick_2">
     <g id="line2d_9">
      <g>
       <use style="stroke:#000000;stroke-width:0.8;" x="90" xlink:href="#m6e51268fc9" y="317.461088"/>
      </g>
     </g>
     <g id="text_10">
      <!-- 1 -->
      <g transform="translate(80.1375 321.260307)scale(0.1 -0.1)">
       <use xlink:href="#DejaVuSans-49"/>
      </g>
     </g>
    </g>
    <g id="ytick_3">
     <g id="line2d_10">
      <g>
       <use style="stroke:#000000;stroke-width:0.8;" x="90" xlink:href="#m6e51268fc9" y="254.481376"/>
      </g>
     </g>
     <g id="text_11">
      <!-- 2 -->
      <g transform="translate(80.1375 258.280595)scale(0.1 -0.1)">
       <use xlink:href="#DejaVuSans-50"/>
      </g>
     </g>
    </g>
    <g id="ytick_4">
     <g id="line2d_11">
      <g>
       <use style="stroke:#000000;stroke-width:0.8;" x="90" xlink:href="#m6e51268fc9" y="191.501664"/>
      </g>
     </g>
     <g id="text_12">
      <!-- 3 -->
      <g transform="translate(80.1375 195.300883)scale(0.1 -0.1)">
       <use xlink:href="#DejaVuSans-51"/>
      </g>
     </g>
    </g>
    <g id="ytick_5">
     <g id="line2d_12">
      <g>
       <use style="stroke:#000000;stroke-width:0.8;" x="90" xlink:href="#m6e51268fc9" y="128.521952"/>
      </g>
     </g>
     <g id="text_13">
      <!-- 4 -->
      <g transform="translate(80.1375 132.321171)scale(0.1 -0.1)">
       <defs>
        <path d="M 37.796875 64.3125 
L 12.890625 25.390625 
L 37.796875 25.390625 
z
M 35.203125 72.90625 
L 47.609375 72.90625 
L 47.609375 25.390625 
L 58.015625 25.390625 
L 58.015625 17.1875 
L 47.609375 17.1875 
L 47.609375 0 
L 37.796875 0 
L 37.796875 17.1875 
L 4.890625 17.1875 
L 4.890625 26.703125 
z
" id="DejaVuSans-52"/>
       </defs>
       <use xlink:href="#DejaVuSans-52"/>
      </g>
     </g>
    </g>
    <g id="ytick_6">
     <g id="line2d_13">
      <g>
       <use style="stroke:#000000;stroke-width:0.8;" x="90" xlink:href="#m6e51268fc9" y="65.54224"/>
      </g>
     </g>
     <g id="text_14">
      <!-- 5 -->
      <g transform="translate(80.1375 69.341459)scale(0.1 -0.1)">
       <use xlink:href="#DejaVuSans-53"/>
      </g>
     </g>
    </g>
    <g id="text_15">
     <!-- No. of syntenic blocks kernel density -->
     <g transform="translate(64.01875 346.005581)rotate(-90)scale(0.15 -0.15)">
      <defs>
       <path d="M 7.625 0 
L 7.625 71.578125 
L 17.328125 71.578125 
L 54.9375 15.375 
L 54.9375 71.578125 
L 64.015625 71.578125 
L 64.015625 0 
L 54.296875 0 
L 16.703125 56.25 
L 16.703125 0 
z
" id="ArialMT-78"/>
       <path d="M 9.078125 0 
L 9.078125 10.015625 
L 19.09375 10.015625 
L 19.09375 0 
z
" id="ArialMT-46"/>
       <path d="M 8.6875 0 
L 8.6875 45.015625 
L 0.921875 45.015625 
L 0.921875 51.859375 
L 8.6875 51.859375 
L 8.6875 57.375 
Q 8.6875 62.59375 9.625 65.140625 
Q 10.890625 68.5625 14.078125 70.671875 
Q 17.28125 72.796875 23.046875 72.796875 
Q 26.765625 72.796875 31.25 71.921875 
L 29.9375 64.265625 
Q 27.203125 64.75 24.75 64.75 
Q 20.75 64.75 19.09375 63.03125 
Q 17.4375 61.328125 17.4375 56.640625 
L 17.4375 51.859375 
L 27.546875 51.859375 
L 27.546875 45.015625 
L 17.4375 45.015625 
L 17.4375 0 
z
" id="ArialMT-102"/>
       <path d="M 6.640625 0 
L 6.640625 71.578125 
L 15.4375 71.578125 
L 15.4375 30.765625 
L 36.234375 51.859375 
L 47.609375 51.859375 
L 27.78125 32.625 
L 49.609375 0 
L 38.765625 0 
L 21.625 26.515625 
L 15.4375 20.5625 
L 15.4375 0 
z
" id="ArialMT-107"/>
       <path d="M 6.5 0 
L 6.5 51.859375 
L 14.40625 51.859375 
L 14.40625 44 
Q 17.4375 49.515625 20 51.265625 
Q 22.5625 53.03125 25.640625 53.03125 
Q 30.078125 53.03125 34.671875 50.203125 
L 31.640625 42.046875 
Q 28.421875 43.953125 25.203125 43.953125 
Q 22.3125 43.953125 20.015625 42.21875 
Q 17.71875 40.484375 16.75 37.40625 
Q 15.28125 32.71875 15.28125 27.15625 
L 15.28125 0 
z
" id="ArialMT-114"/>
      </defs>
      <use xlink:href="#ArialMT-78"/>
      <use x="72.216797" xlink:href="#ArialMT-111"/>
      <use x="127.832031" xlink:href="#ArialMT-46"/>
      <use x="155.615234" xlink:href="#ArialMT-32"/>
      <use x="183.398438" xlink:href="#ArialMT-111"/>
      <use x="239.013672" xlink:href="#ArialMT-102"/>
      <use x="266.796875" xlink:href="#ArialMT-32"/>
      <use x="294.580078" xlink:href="#ArialMT-115"/>
      <use x="344.580078" xlink:href="#ArialMT-121"/>
      <use x="394.580078" xlink:href="#ArialMT-110"/>
      <use x="450.195312" xlink:href="#ArialMT-116"/>
      <use x="477.978516" xlink:href="#ArialMT-101"/>
      <use x="533.59375" xlink:href="#ArialMT-110"/>
      <use x="589.208984" xlink:href="#ArialMT-105"/>
      <use x="611.425781" xlink:href="#ArialMT-99"/>
      <use x="661.425781" xlink:href="#ArialMT-32"/>
      <use x="689.208984" xlink:href="#ArialMT-98"/>
      <use x="744.824219" xlink:href="#ArialMT-108"/>
      <use x="767.041016" xlink:href="#ArialMT-111"/>
      <use x="822.65625" xlink:href="#ArialMT-99"/>
      <use x="872.65625" xlink:href="#ArialMT-107"/>
      <use x="922.65625" xlink:href="#ArialMT-115"/>
      <use x="972.65625" xlink:href="#ArialMT-32"/>
      <use x="1000.439453" xlink:href="#ArialMT-107"/>
      <use x="1050.439453" xlink:href="#ArialMT-101"/>
      <use x="1106.054688" xlink:href="#ArialMT-114"/>
      <use x="1139.355469" xlink:href="#ArialMT-110"/>
      <use x="1194.970703" xlink:href="#ArialMT-101"/>
      <use x="1250.585938" xlink:href="#ArialMT-108"/>
      <use x="1272.802734" xlink:href="#ArialMT-32"/>
      <use x="1300.585938" xlink:href="#ArialMT-100"/>
      <use x="1356.201172" xlink:href="#ArialMT-101"/>
      <use x="1411.816406" xlink:href="#ArialMT-110"/>
      <use x="1467.431641" xlink:href="#ArialMT-115"/>
      <use x="1517.431641" xlink:href="#ArialMT-105"/>
      <use x="1539.648438" xlink:href="#ArialMT-116"/>
      <use x="1567.431641" xlink:href="#ArialMT-121"/>
     </g>
    </g>
   </g>
   <g id="line2d_14">
    <path clip-path="url(#p7e67f6a3f8)" d="M 115.363636 380.4408 
L 266.105782 380.331637 
L 274.574442 380.103883 
L 280.502504 379.739584 
L 284.736834 379.290101 
L 288.124298 378.759359 
L 291.511762 378.020615 
L 294.899226 377.009484 
L 297.439824 376.026446 
L 299.980422 374.809803 
L 302.52102 373.318583 
L 305.061618 371.50863 
L 307.602216 369.333434 
L 310.142814 366.745288 
L 312.683412 363.696789 
L 315.22401 360.142666 
L 317.764608 356.04193 
L 320.305206 351.36027 
L 322.845804 346.072634 
L 325.386402 340.165874 
L 327.927 333.641326 
L 330.467598 326.517165 
L 333.008195 318.830373 
L 336.395659 307.807973 
L 340.629989 293.07042 
L 352.486113 250.864301 
L 355.026711 242.701456 
L 357.567309 235.209931 
L 360.107907 228.539916 
L 361.801639 224.616478 
L 363.495371 221.152349 
L 365.189103 218.176851 
L 366.882835 215.713703 
L 368.576567 213.780555 
L 370.270299 212.388629 
L 371.117165 211.897309 
L 371.964031 211.542471 
L 372.810897 211.323621 
L 373.657763 211.239844 
L 374.504629 211.289802 
L 375.351495 211.471742 
L 376.198361 211.783507 
L 377.892093 212.785897 
L 379.585825 214.271967 
L 381.279557 216.211003 
L 382.973289 218.567139 
L 384.667021 221.300003 
L 386.360753 224.365444 
L 388.901351 229.483423 
L 392.288815 237.015363 
L 404.144939 264.29955 
L 406.685537 269.367895 
L 409.226134 273.917183 
L 411.766732 277.88077 
L 413.460464 280.175753 
L 415.154196 282.184173 
L 416.847928 283.903621 
L 418.54166 285.335863 
L 420.235392 286.486532 
L 421.929124 287.364791 
L 423.622856 287.982963 
L 425.316588 288.356135 
L 427.01032 288.501761 
L 428.704052 288.439257 
L 430.397784 288.189597 
L 432.938382 287.51288 
L 435.47898 286.54289 
L 438.866444 284.930392 
L 450.722568 278.854117 
L 453.263166 277.892983 
L 455.803764 277.166645 
L 458.344362 276.712171 
L 460.88496 276.558876 
L 463.425558 276.728471 
L 465.11929 277.028305 
L 466.813022 277.480694 
L 469.35362 278.44759 
L 471.894218 279.758933 
L 474.434816 281.407675 
L 476.975414 283.381484 
L 479.516012 285.663344 
L 482.05661 288.232166 
L 484.597207 291.063422 
L 487.984671 295.199101 
L 491.372135 299.681995 
L 495.606465 305.659793 
L 501.534527 314.459802 
L 512.543785 330.914374 
L 517.624981 338.07836 
L 521.859311 343.675646 
L 526.093641 348.865461 
L 529.481105 352.694461 
L 532.868569 356.221857 
L 536.256033 359.441902 
L 539.643497 362.355337 
L 543.030961 364.968512 
L 546.418425 367.292451 
L 549.805889 369.341905 
L 553.193353 371.134437 
L 556.580817 372.689544 
L 559.96828 374.027879 
L 564.20261 375.428108 
L 568.43694 376.563387 
L 572.67127 377.472765 
L 577.752466 378.31666 
L 582.833662 378.943345 
L 588.761724 379.463677 
L 596.383518 379.893173 
L 605.699044 380.183081 
L 619.2489 380.36214 
L 622.636364 380.383304 
L 622.636364 380.383304 
" style="fill:none;stroke:#ff0000;stroke-linecap:square;stroke-width:2;"/>
   </g>
   <g id="line2d_15">
    <path clip-path="url(#p7e67f6a3f8)" d="M 115.363636 380.4408 
L 250.862195 380.341666 
L 257.637122 380.116262 
L 261.871452 379.793886 
L 265.258916 379.348984 
L 267.799514 378.850733 
L 270.340112 378.157828 
L 272.88071 377.209295 
L 275.421308 375.931302 
L 277.11504 374.853827 
L 278.808772 373.562552 
L 280.502504 372.026227 
L 282.196236 370.211658 
L 283.889968 368.084192 
L 285.5837 365.608371 
L 287.277432 362.748749 
L 288.971164 359.470868 
L 290.664896 355.742402 
L 292.358628 351.534436 
L 294.05236 346.822861 
L 295.746092 341.589852 
L 297.439824 335.82537 
L 299.980422 326.183333 
L 302.52102 315.389943 
L 305.061618 303.551552 
L 308.449082 286.453833 
L 314.377144 254.771101 
L 317.764608 237.151168 
L 320.305206 224.936701 
L 321.998938 217.513931 
L 323.69267 210.813203 
L 325.386402 204.950454 
L 327.080134 200.029857 
L 328.773866 196.140753 
L 329.620732 194.606199 
L 330.467598 193.35495 
L 331.314463 192.392879 
L 332.161329 191.724522 
L 333.008195 191.353039 
L 333.855061 191.280189 
L 334.701927 191.506318 
L 335.548793 192.030354 
L 336.395659 192.849817 
L 337.242525 193.960838 
L 338.089391 195.35819 
L 338.936257 197.035327 
L 340.629989 201.196508 
L 342.323721 206.367844 
L 344.017453 212.455918 
L 345.711185 219.353235 
L 348.251783 230.955331 
L 350.792381 243.682082 
L 355.873577 270.761582 
L 360.107907 293.067385 
L 363.495371 309.642726 
L 366.035969 320.971617 
L 368.576567 331.193596 
L 371.117165 340.234856 
L 372.810897 345.59673 
L 374.504629 350.433949 
L 376.198361 354.762582 
L 377.892093 358.605344 
L 379.585825 361.990111 
L 381.279557 364.948503 
L 382.973289 367.514567 
L 384.667021 369.723606 
L 386.360753 371.611158 
L 388.054485 373.212136 
L 389.748217 374.560142 
L 391.441949 375.686937 
L 393.135681 376.622057 
L 395.676279 377.723859 
L 398.216877 378.53508 
L 400.757475 379.122977 
L 404.144939 379.652594 
L 408.379268 380.040703 
L 413.460464 380.272481 
L 421.929124 380.405768 
L 444.794506 380.44057 
L 622.636364 380.4408 
L 622.636364 380.4408 
" style="fill:none;stroke:#0000ff;stroke-linecap:square;stroke-width:2;"/>
   </g>
   <g id="line2d_16">
    <path clip-path="url(#p7e67f6a3f8)" d="M 115.363636 380.4408 
L 222.915617 380.330201 
L 233.078009 380.088853 
L 239.852937 379.722392 
L 244.934133 379.250843 
L 249.168463 378.664639 
L 253.402793 377.837402 
L 256.790256 376.951774 
L 260.17772 375.818945 
L 262.718318 374.777294 
L 265.258916 373.546138 
L 267.799514 372.102085 
L 270.340112 370.421352 
L 272.88071 368.480364 
L 275.421308 366.256472 
L 277.961906 363.728777 
L 280.502504 360.879044 
L 283.043102 357.692697 
L 285.5837 354.15985 
L 288.124298 350.276345 
L 290.664896 346.044761 
L 294.05236 339.880081 
L 297.439824 333.163642 
L 300.827288 325.972278 
L 305.061618 316.480615 
L 317.764608 287.577454 
L 321.152072 280.663994 
L 323.69267 275.943876 
L 326.233268 271.714164 
L 328.773866 268.050992 
L 330.467598 265.957451 
L 332.161329 264.163525 
L 333.855061 262.684407 
L 335.548793 261.532746 
L 337.242525 260.718467 
L 338.936257 260.248623 
L 340.629989 260.127301 
L 342.323721 260.355558 
L 344.017453 260.931405 
L 345.711185 261.84984 
L 347.404917 263.102917 
L 349.098649 264.679862 
L 350.792381 266.567226 
L 352.486113 268.749076 
L 354.179845 271.20722 
L 356.720443 275.367824 
L 359.261041 280.029073 
L 361.801639 285.109312 
L 365.189103 292.386162 
L 370.270299 303.959638 
L 378.738959 323.384875 
L 382.973289 332.485739 
L 386.360753 339.252063 
L 389.748217 345.472782 
L 392.288815 349.748787 
L 394.829413 353.677586 
L 397.370011 357.255661 
L 399.910609 360.486354 
L 402.451207 363.378869 
L 404.991805 365.947236 
L 407.532402 368.20927 
L 410.073 370.185582 
L 412.613598 371.898643 
L 415.154196 373.371951 
L 417.694794 374.629298 
L 421.082258 376.010281 
L 424.469722 377.102162 
L 427.857186 377.954047 
L 432.091516 378.747991 
L 436.325846 379.309207 
L 441.407042 379.759449 
L 448.18197 380.108194 
L 457.497496 380.325797 
L 473.58795 380.42587 
L 538.796631 380.4408 
L 622.636364 380.4408 
L 622.636364 380.4408 
" style="fill:none;stroke:#ffa500;stroke-linecap:square;stroke-width:2;"/>
   </g>
   <g id="line2d_17">
    <path clip-path="url(#p7e67f6a3f8)" d="M 115.363636 380.4408 
L 214.446957 380.350525 
L 218.681287 380.105821 
L 221.221885 379.744621 
L 222.915617 379.332809 
L 224.609349 378.709539 
L 226.303081 377.784974 
L 227.996813 376.440915 
L 228.843679 375.565791 
L 229.690545 374.526463 
L 230.537411 373.298478 
L 231.384277 371.855106 
L 232.231143 370.167402 
L 233.078009 368.204349 
L 233.924875 365.933067 
L 234.771741 363.319122 
L 235.618607 360.326924 
L 237.312339 353.062738 
L 239.006071 343.854339 
L 240.699803 332.43996 
L 242.393535 318.612397 
L 244.087267 302.253185 
L 245.780999 283.367755 
L 247.474731 262.117552 
L 250.015329 226.608553 
L 256.790256 127.449798 
L 258.483988 106.821727 
L 260.17772 89.905834 
L 261.024586 83.117834 
L 261.871452 77.567357 
L 262.718318 73.328919 
L 263.565184 70.460047 
L 264.41205 68.999985 
L 265.258916 68.9688 
L 266.105782 70.36692 
L 266.952648 73.175129 
L 267.799514 77.355002 
L 268.64638 82.849782 
L 269.493246 89.585663 
L 270.340112 97.473439 
L 272.033844 116.282891 
L 273.727576 138.336982 
L 276.268174 175.216482 
L 280.502504 238.318837 
L 283.043102 272.557837 
L 284.736834 292.708251 
L 286.430566 310.395439 
L 288.124298 325.536198 
L 289.81803 338.188644 
L 291.511762 348.518091 
L 293.205494 356.761909 
L 294.899226 363.19697 
L 296.592958 368.112113 
L 298.28669 371.786923 
L 299.980422 374.477106 
L 301.674154 376.40592 
L 303.367886 377.760664 
L 305.061618 378.692992 
L 306.75535 379.321771 
L 308.449082 379.737405 
L 310.98968 380.102145 
L 314.377144 380.320977 
L 320.305206 380.424507 
L 344.864319 380.4408 
L 622.636364 380.4408 
L 622.636364 380.4408 
" style="fill:none;stroke:#ffa500;stroke-dasharray:7.4,3.2;stroke-dashoffset:0;stroke-width:2;"/>
   </g>
   <g id="line2d_18">
    <path clip-path="url(#p7e67f6a3f8)" d="M 115.363636 380.4408 
L 256.790256 380.336224 
L 265.258916 380.090514 
L 270.340112 379.754299 
L 274.574442 379.273702 
L 277.961906 378.691199 
L 281.34937 377.863421 
L 283.889968 377.033775 
L 286.430566 375.98114 
L 288.971164 374.660406 
L 291.511762 373.02185 
L 294.05236 371.011991 
L 295.746092 369.438238 
L 297.439824 367.657802 
L 299.133556 365.654021 
L 300.827288 363.410733 
L 302.52102 360.912653 
L 305.061618 356.65766 
L 307.602216 351.758982 
L 310.142814 346.189781 
L 312.683412 339.939436 
L 315.22401 333.017133 
L 317.764608 325.455076 
L 321.152072 314.480932 
L 324.539536 302.687773 
L 330.467598 281.023028 
L 334.701927 265.763852 
L 338.089391 254.390329 
L 340.629989 246.669396 
L 342.323721 242.0194 
L 344.017453 237.832398 
L 345.711185 234.159465 
L 347.404917 231.046288 
L 349.098649 228.532222 
L 350.792381 226.649461 
L 351.639247 225.952751 
L 352.486113 225.422353 
L 353.332979 225.059999 
L 354.179845 224.866873 
L 355.026711 224.843609 
L 355.873577 224.990283 
L 356.720443 225.306414 
L 357.567309 225.790968 
L 358.414175 226.442362 
L 359.261041 227.258473 
L 360.954773 229.373733 
L 362.648505 232.109481 
L 364.342237 235.430836 
L 366.035969 239.296041 
L 367.729701 243.657337 
L 370.270299 251.012883 
L 372.810897 259.171279 
L 376.198361 270.942678 
L 388.901351 316.5418 
L 392.288815 327.341884 
L 394.829413 334.753351 
L 397.370011 341.515004 
L 399.910609 347.600477 
L 402.451207 353.005692 
L 404.991805 357.745535 
L 407.532402 361.85021 
L 410.073 365.361526 
L 412.613598 368.329325 
L 415.154196 370.808213 
L 417.694794 372.854706 
L 420.235392 374.524873 
L 422.77599 375.872478 
L 425.316588 376.947628 
L 427.857186 377.79588 
L 431.24465 378.643201 
L 434.632114 379.240249 
L 438.866444 379.733565 
L 443.94764 380.079286 
L 450.722568 380.301816 
L 462.578692 380.418752 
L 501.534527 380.440788 
L 622.636364 380.4408 
L 622.636364 380.4408 
" style="fill:none;stroke:#008000;stroke-dasharray:7.4,3.2;stroke-dashoffset:0;stroke-width:2;"/>
   </g>
   <g id="patch_3">
    <path d="M 90 396.0144 
L 90 53.3952 
" style="fill:none;stroke:#000000;stroke-linecap:square;stroke-linejoin:miter;stroke-width:0.8;"/>
   </g>
   <g id="patch_4">
    <path d="M 90 396.0144 
L 648 396.0144 
" style="fill:none;stroke:#000000;stroke-linecap:square;stroke-linejoin:miter;stroke-width:0.8;"/>
   </g>
   <g id="text_16">
    <!-- Before evolutionary rate correction -->
    <g transform="translate(243.972656 50.238169)scale(0.15 -0.15)">
     <defs>
      <path d="M 7.328125 71.578125 
L 35.9375 71.578125 
Q 44.4375 71.578125 48.609375 70.875 
Q 52.78125 70.171875 56.078125 67.921875 
Q 59.375 65.671875 61.5625 61.9375 
Q 63.765625 58.203125 63.765625 53.5625 
Q 63.765625 48.53125 61.046875 44.328125 
Q 58.34375 40.140625 53.71875 38.03125 
Q 60.25 36.140625 63.765625 31.546875 
Q 67.28125 26.953125 67.28125 20.75 
Q 67.28125 15.875 65.015625 11.25 
Q 62.75 6.640625 58.8125 3.875 
Q 54.890625 1.125 49.125 0.484375 
Q 45.515625 0.09375 31.6875 0 
L 7.328125 0 
z
M 21.78125 59.671875 
L 21.78125 43.109375 
L 31.25 43.109375 
Q 39.703125 43.109375 41.75 43.359375 
Q 45.453125 43.796875 47.578125 45.921875 
Q 49.703125 48.046875 49.703125 51.515625 
Q 49.703125 54.828125 47.875 56.90625 
Q 46.046875 58.984375 42.4375 59.421875 
Q 40.28125 59.671875 30.078125 59.671875 
z
M 21.78125 31.203125 
L 21.78125 12.0625 
L 35.15625 12.0625 
Q 42.96875 12.0625 45.0625 12.5 
Q 48.296875 13.09375 50.3125 15.359375 
Q 52.34375 17.625 52.34375 21.4375 
Q 52.34375 24.65625 50.78125 26.90625 
Q 49.21875 29.15625 46.265625 30.171875 
Q 43.3125 31.203125 33.453125 31.203125 
z
" id="Arial-BoldMT-66"/>
      <path d="M 37.203125 16.5 
L 50.875 14.203125 
Q 48.25 6.6875 42.546875 2.75 
Q 36.859375 -1.171875 28.328125 -1.171875 
Q 14.796875 -1.171875 8.296875 7.671875 
Q 3.171875 14.75 3.171875 25.53125 
Q 3.171875 38.421875 9.90625 45.71875 
Q 16.65625 53.03125 26.953125 53.03125 
Q 38.53125 53.03125 45.21875 45.390625 
Q 51.90625 37.75 51.609375 21.96875 
L 17.234375 21.96875 
Q 17.390625 15.875 20.5625 12.46875 
Q 23.734375 9.078125 28.46875 9.078125 
Q 31.6875 9.078125 33.875 10.828125 
Q 36.078125 12.59375 37.203125 16.5 
z
M 37.984375 30.375 
Q 37.84375 36.328125 34.90625 39.421875 
Q 31.984375 42.53125 27.78125 42.53125 
Q 23.296875 42.53125 20.359375 39.265625 
Q 17.4375 35.984375 17.484375 30.375 
z
" id="Arial-BoldMT-101"/>
      <path d="M 1.171875 51.859375 
L 8.796875 51.859375 
L 8.796875 55.765625 
Q 8.796875 62.3125 10.1875 65.53125 
Q 11.578125 68.75 15.3125 70.765625 
Q 19.046875 72.796875 24.75 72.796875 
Q 30.609375 72.796875 36.234375 71.046875 
L 34.375 61.46875 
Q 31.109375 62.25 28.078125 62.25 
Q 25.09375 62.25 23.796875 60.859375 
Q 22.515625 59.46875 22.515625 55.515625 
L 22.515625 51.859375 
L 32.765625 51.859375 
L 32.765625 41.0625 
L 22.515625 41.0625 
L 22.515625 0 
L 8.796875 0 
L 8.796875 41.0625 
L 1.171875 41.0625 
z
" id="Arial-BoldMT-102"/>
      <path d="M 4 26.65625 
Q 4 33.5 7.375 39.890625 
Q 10.75 46.296875 16.921875 49.65625 
Q 23.09375 53.03125 30.71875 53.03125 
Q 42.484375 53.03125 50 45.390625 
Q 57.515625 37.75 57.515625 26.078125 
Q 57.515625 14.3125 49.921875 6.5625 
Q 42.328125 -1.171875 30.8125 -1.171875 
Q 23.6875 -1.171875 17.21875 2.046875 
Q 10.75 5.28125 7.375 11.5 
Q 4 17.71875 4 26.65625 
z
M 18.0625 25.921875 
Q 18.0625 18.21875 21.71875 14.109375 
Q 25.390625 10.015625 30.765625 10.015625 
Q 36.140625 10.015625 39.765625 14.109375 
Q 43.40625 18.21875 43.40625 26.03125 
Q 43.40625 33.640625 39.765625 37.734375 
Q 36.140625 41.84375 30.765625 41.84375 
Q 25.390625 41.84375 21.71875 37.734375 
Q 18.0625 33.640625 18.0625 25.921875 
z
" id="Arial-BoldMT-111"/>
      <path d="M 20.3125 0 
L 6.59375 0 
L 6.59375 51.859375 
L 19.34375 51.859375 
L 19.34375 44.484375 
Q 22.609375 49.703125 25.21875 51.359375 
Q 27.828125 53.03125 31.15625 53.03125 
Q 35.84375 53.03125 40.1875 50.4375 
L 35.9375 38.484375 
Q 32.46875 40.71875 29.5 40.71875 
Q 26.609375 40.71875 24.609375 39.125 
Q 22.609375 37.546875 21.453125 33.390625 
Q 20.3125 29.25 20.3125 16.015625 
z
" id="Arial-BoldMT-114"/>
      <path id="Arial-BoldMT-32"/>
      <path d="M 21.4375 0 
L 0.53125 51.859375 
L 14.9375 51.859375 
L 24.703125 25.390625 
L 27.546875 16.546875 
Q 28.65625 19.921875 28.953125 21 
Q 29.640625 23.1875 30.421875 25.390625 
L 40.28125 51.859375 
L 54.390625 51.859375 
L 33.796875 0 
z
" id="Arial-BoldMT-118"/>
      <path d="M 7.171875 0 
L 7.171875 71.578125 
L 20.90625 71.578125 
L 20.90625 0 
z
" id="Arial-BoldMT-108"/>
      <path d="M 41.3125 0 
L 41.3125 7.765625 
Q 38.484375 3.609375 33.859375 1.21875 
Q 29.25 -1.171875 24.125 -1.171875 
Q 18.890625 -1.171875 14.734375 1.125 
Q 10.59375 3.421875 8.734375 7.5625 
Q 6.890625 11.71875 6.890625 19.046875 
L 6.890625 51.859375 
L 20.609375 51.859375 
L 20.609375 28.03125 
Q 20.609375 17.09375 21.359375 14.625 
Q 22.125 12.15625 24.125 10.71875 
Q 26.125 9.28125 29.203125 9.28125 
Q 32.71875 9.28125 35.5 11.203125 
Q 38.28125 13.140625 39.296875 15.984375 
Q 40.328125 18.84375 40.328125 29.984375 
L 40.328125 51.859375 
L 54.046875 51.859375 
L 54.046875 0 
z
" id="Arial-BoldMT-117"/>
      <path d="M 30.953125 51.859375 
L 30.953125 40.921875 
L 21.578125 40.921875 
L 21.578125 20.015625 
Q 21.578125 13.671875 21.84375 12.625 
Q 22.125 11.578125 23.078125 10.890625 
Q 24.03125 10.203125 25.390625 10.203125 
Q 27.296875 10.203125 30.90625 11.53125 
L 32.078125 0.875 
Q 27.296875 -1.171875 21.234375 -1.171875 
Q 17.53125 -1.171875 14.546875 0.0625 
Q 11.578125 1.3125 10.1875 3.296875 
Q 8.796875 5.28125 8.25 8.640625 
Q 7.8125 11.03125 7.8125 18.3125 
L 7.8125 40.921875 
L 1.515625 40.921875 
L 1.515625 51.859375 
L 7.8125 51.859375 
L 7.8125 62.15625 
L 21.578125 70.171875 
L 21.578125 51.859375 
z
" id="Arial-BoldMT-116"/>
      <path d="M 7.171875 58.890625 
L 7.171875 71.578125 
L 20.90625 71.578125 
L 20.90625 58.890625 
z
M 7.171875 0 
L 7.171875 51.859375 
L 20.90625 51.859375 
L 20.90625 0 
z
" id="Arial-BoldMT-105"/>
      <path d="M 54.34375 0 
L 40.625 0 
L 40.625 26.46875 
Q 40.625 34.859375 39.75 37.328125 
Q 38.875 39.796875 36.890625 41.15625 
Q 34.90625 42.53125 32.125 42.53125 
Q 28.5625 42.53125 25.734375 40.578125 
Q 22.90625 38.625 21.84375 35.390625 
Q 20.796875 32.171875 20.796875 23.484375 
L 20.796875 0 
L 7.078125 0 
L 7.078125 51.859375 
L 19.828125 51.859375 
L 19.828125 44.234375 
Q 26.609375 53.03125 36.921875 53.03125 
Q 41.453125 53.03125 45.203125 51.390625 
Q 48.96875 49.75 50.890625 47.203125 
Q 52.828125 44.671875 53.578125 41.453125 
Q 54.34375 38.234375 54.34375 32.234375 
z
" id="Arial-BoldMT-110"/>
      <path d="M 17.4375 36.03125 
L 4.984375 38.28125 
Q 7.078125 45.796875 12.203125 49.40625 
Q 17.328125 53.03125 27.4375 53.03125 
Q 36.625 53.03125 41.109375 50.859375 
Q 45.609375 48.6875 47.4375 45.34375 
Q 49.265625 42 49.265625 33.0625 
L 49.125 17.046875 
Q 49.125 10.203125 49.78125 6.953125 
Q 50.4375 3.71875 52.25 0 
L 38.671875 0 
Q 38.140625 1.375 37.359375 4.046875 
Q 37.015625 5.28125 36.859375 5.671875 
Q 33.34375 2.25 29.34375 0.53125 
Q 25.34375 -1.171875 20.796875 -1.171875 
Q 12.796875 -1.171875 8.171875 3.171875 
Q 3.5625 7.515625 3.5625 14.15625 
Q 3.5625 18.5625 5.65625 22 
Q 7.765625 25.4375 11.546875 27.265625 
Q 15.328125 29.109375 22.46875 30.46875 
Q 32.078125 32.28125 35.796875 33.84375 
L 35.796875 35.203125 
Q 35.796875 39.15625 33.84375 40.84375 
Q 31.890625 42.53125 26.46875 42.53125 
Q 22.796875 42.53125 20.75 41.09375 
Q 18.703125 39.65625 17.4375 36.03125 
z
M 35.796875 24.90625 
Q 33.15625 24.03125 27.4375 22.796875 
Q 21.734375 21.578125 19.96875 20.40625 
Q 17.28125 18.5 17.28125 15.578125 
Q 17.28125 12.703125 19.421875 10.59375 
Q 21.578125 8.5 24.90625 8.5 
Q 28.609375 8.5 31.984375 10.9375 
Q 34.46875 12.796875 35.25 15.484375 
Q 35.796875 17.234375 35.796875 22.171875 
z
" id="Arial-BoldMT-97"/>
      <path d="M 0.6875 51.859375 
L 15.28125 51.859375 
L 27.6875 15.046875 
L 39.796875 51.859375 
L 54 51.859375 
L 35.6875 1.953125 
L 32.421875 -7.078125 
Q 30.609375 -11.625 28.96875 -14.015625 
Q 27.34375 -16.40625 25.21875 -17.890625 
Q 23.09375 -19.390625 19.984375 -20.21875 
Q 16.890625 -21.046875 12.984375 -21.046875 
Q 9.03125 -21.046875 5.21875 -20.21875 
L 4 -9.46875 
Q 7.234375 -10.109375 9.8125 -10.109375 
Q 14.59375 -10.109375 16.890625 -7.296875 
Q 19.1875 -4.5 20.40625 -0.140625 
z
" id="Arial-BoldMT-121"/>
      <path d="M 52.390625 36.53125 
L 38.875 34.078125 
Q 38.1875 38.140625 35.765625 40.1875 
Q 33.34375 42.234375 29.5 42.234375 
Q 24.359375 42.234375 21.3125 38.6875 
Q 18.265625 35.15625 18.265625 26.859375 
Q 18.265625 17.625 21.359375 13.8125 
Q 24.46875 10.015625 29.6875 10.015625 
Q 33.59375 10.015625 36.078125 12.234375 
Q 38.578125 14.453125 39.59375 19.875 
L 53.078125 17.578125 
Q 50.984375 8.296875 45.015625 3.5625 
Q 39.0625 -1.171875 29.046875 -1.171875 
Q 17.671875 -1.171875 10.90625 6 
Q 4.15625 13.1875 4.15625 25.875 
Q 4.15625 38.71875 10.9375 45.875 
Q 17.71875 53.03125 29.296875 53.03125 
Q 38.765625 53.03125 44.359375 48.953125 
Q 49.953125 44.875 52.390625 36.53125 
z
" id="Arial-BoldMT-99"/>
     </defs>
     <use xlink:href="#Arial-BoldMT-66"/>
     <use x="72.216797" xlink:href="#Arial-BoldMT-101"/>
     <use x="127.832031" xlink:href="#Arial-BoldMT-102"/>
     <use x="161.132812" xlink:href="#Arial-BoldMT-111"/>
     <use x="222.216797" xlink:href="#Arial-BoldMT-114"/>
     <use x="261.132812" xlink:href="#Arial-BoldMT-101"/>
     <use x="316.748047" xlink:href="#Arial-BoldMT-32"/>
     <use x="344.53125" xlink:href="#Arial-BoldMT-101"/>
     <use x="400.146484" xlink:href="#Arial-BoldMT-118"/>
     <use x="455.761719" xlink:href="#Arial-BoldMT-111"/>
     <use x="516.845703" xlink:href="#Arial-BoldMT-108"/>
     <use x="544.628906" xlink:href="#Arial-BoldMT-117"/>
     <use x="605.712891" xlink:href="#Arial-BoldMT-116"/>
     <use x="639.013672" xlink:href="#Arial-BoldMT-105"/>
     <use x="666.796875" xlink:href="#Arial-BoldMT-111"/>
     <use x="727.880859" xlink:href="#Arial-BoldMT-110"/>
     <use x="788.964844" xlink:href="#Arial-BoldMT-97"/>
     <use x="844.580078" xlink:href="#Arial-BoldMT-114"/>
     <use x="883.496094" xlink:href="#Arial-BoldMT-121"/>
     <use x="939.111328" xlink:href="#Arial-BoldMT-32"/>
     <use x="966.894531" xlink:href="#Arial-BoldMT-114"/>
     <use x="1005.810547" xlink:href="#Arial-BoldMT-97"/>
     <use x="1061.425781" xlink:href="#Arial-BoldMT-116"/>
     <use x="1094.726562" xlink:href="#Arial-BoldMT-101"/>
     <use x="1150.341797" xlink:href="#Arial-BoldMT-32"/>
     <use x="1178.125" xlink:href="#Arial-BoldMT-99"/>
     <use x="1233.740234" xlink:href="#Arial-BoldMT-111"/>
     <use x="1294.824219" xlink:href="#Arial-BoldMT-114"/>
     <use x="1333.740234" xlink:href="#Arial-BoldMT-114"/>
     <use x="1372.65625" xlink:href="#Arial-BoldMT-101"/>
     <use x="1428.271484" xlink:href="#Arial-BoldMT-99"/>
     <use x="1483.886719" xlink:href="#Arial-BoldMT-116"/>
     <use x="1517.1875" xlink:href="#Arial-BoldMT-105"/>
     <use x="1544.970703" xlink:href="#Arial-BoldMT-111"/>
     <use x="1606.054688" xlink:href="#Arial-BoldMT-110"/>
    </g>
   </g>
   <g id="legend_1">
    <g id="patch_5">
     <path d="M 538.970312 132.209262 
L 641 132.209262 
Q 643 132.209262 643 130.209262 
L 643 60.3952 
Q 643 58.3952 641 58.3952 
L 538.970312 58.3952 
Q 536.970312 58.3952 536.970312 60.3952 
L 536.970312 130.209262 
Q 536.970312 132.209262 538.970312 132.209262 
z
" style="fill:#ffffff;opacity:0.8;stroke:#cccccc;stroke-linejoin:miter;"/>
    </g>
    <g id="line2d_19">
     <path d="M 540.970312 66.053012 
L 560.970312 66.053012 
" style="fill:none;stroke:#ff0000;stroke-linecap:square;stroke-width:2;"/>
    </g>
    <g id="line2d_20"/>
    <g id="text_17">
     <!-- csa_csa -->
     <g transform="translate(568.970312 69.553012)scale(0.1 -0.1)">
      <defs>
       <path d="M 39.109375 18.890625 
L 47.953125 17.96875 
Q 44.625 8.25 38.5 3.53125 
Q 32.375 -1.171875 24.5625 -1.171875 
Q 16.109375 -1.171875 10.859375 4.296875 
Q 5.609375 9.765625 5.609375 19.578125 
Q 5.609375 28.078125 8.984375 36.28125 
Q 12.359375 44.484375 18.625 48.75 
Q 24.90625 53.03125 32.953125 53.03125 
Q 41.3125 53.03125 46.1875 48.3125 
Q 51.078125 43.609375 51.078125 35.84375 
L 42.390625 35.25 
Q 42.328125 40.1875 39.515625 42.96875 
Q 36.71875 45.75 32.125 45.75 
Q 26.8125 45.75 22.90625 42.375 
Q 19 39.015625 16.765625 32.15625 
Q 14.546875 25.296875 14.546875 18.953125 
Q 14.546875 12.3125 17.46875 8.984375 
Q 20.40625 5.671875 24.703125 5.671875 
Q 29 5.671875 32.921875 8.9375 
Q 36.859375 12.203125 39.109375 18.890625 
z
" id="Arial-ItalicMT-99"/>
       <path d="M 4.15625 17.71875 
L 12.984375 18.265625 
Q 12.984375 14.453125 14.15625 11.765625 
Q 15.328125 9.078125 18.46875 7.375 
Q 21.625 5.671875 25.828125 5.671875 
Q 31.6875 5.671875 34.609375 8.015625 
Q 37.546875 10.359375 37.546875 13.53125 
Q 37.546875 15.828125 35.796875 17.875 
Q 33.984375 19.921875 26.96875 22.921875 
Q 19.96875 25.921875 18.015625 27.15625 
Q 14.75 29.15625 13.078125 31.859375 
Q 11.421875 34.578125 11.421875 38.09375 
Q 11.421875 44.234375 16.296875 48.625 
Q 21.1875 53.03125 29.984375 53.03125 
Q 39.75 53.03125 44.84375 48.515625 
Q 49.953125 44 50.140625 36.625 
L 41.5 36.03125 
Q 41.3125 40.71875 38.1875 43.453125 
Q 35.0625 46.1875 29.34375 46.1875 
Q 24.75 46.1875 22.203125 44.09375 
Q 19.671875 42 19.671875 39.546875 
Q 19.671875 37.109375 21.875 35.25 
Q 23.34375 33.984375 29.4375 31.34375 
Q 39.59375 26.953125 42.234375 24.421875 
Q 46.4375 20.359375 46.4375 14.546875 
Q 46.4375 10.6875 44.0625 6.96875 
Q 41.703125 3.265625 36.84375 1.046875 
Q 31.984375 -1.171875 25.390625 -1.171875 
Q 16.40625 -1.171875 10.109375 3.265625 
Q 3.8125 7.71875 4.15625 17.71875 
z
" id="Arial-ItalicMT-115"/>
       <path d="M 38.28125 6.453125 
Q 33.6875 2.484375 29.4375 0.65625 
Q 25.203125 -1.171875 20.359375 -1.171875 
Q 13.1875 -1.171875 8.78125 3.046875 
Q 4.390625 7.28125 4.390625 13.875 
Q 4.390625 18.21875 6.359375 21.5625 
Q 8.34375 24.90625 11.609375 26.921875 
Q 14.890625 28.953125 19.625 29.828125 
Q 22.609375 30.421875 30.9375 30.765625 
Q 39.265625 31.109375 42.875 32.515625 
Q 43.890625 36.140625 43.890625 38.53125 
Q 43.890625 41.609375 41.65625 43.359375 
Q 38.578125 45.796875 32.671875 45.796875 
Q 27.09375 45.796875 23.546875 43.328125 
Q 20.015625 40.875 18.40625 36.328125 
L 9.46875 37.109375 
Q 12.203125 44.828125 18.140625 48.921875 
Q 24.078125 53.03125 33.109375 53.03125 
Q 42.71875 53.03125 48.34375 48.4375 
Q 52.640625 45.015625 52.640625 39.546875 
Q 52.640625 35.40625 51.421875 29.9375 
L 48.53125 17.046875 
Q 47.171875 10.890625 47.171875 7.03125 
Q 47.171875 4.59375 48.25 0 
L 39.3125 0 
Q 38.578125 2.546875 38.28125 6.453125 
z
M 41.546875 26.265625 
Q 39.703125 25.53125 37.578125 25.140625 
Q 35.453125 24.75 30.46875 24.3125 
Q 22.75 23.640625 19.578125 22.578125 
Q 16.40625 21.53125 14.796875 19.234375 
Q 13.1875 16.9375 13.1875 14.15625 
Q 13.1875 10.453125 15.75 8.0625 
Q 18.3125 5.671875 23.046875 5.671875 
Q 27.4375 5.671875 31.484375 7.984375 
Q 35.546875 10.296875 37.890625 14.453125 
Q 40.234375 18.609375 41.546875 26.265625 
z
" id="Arial-ItalicMT-97"/>
       <path d="M -6.34375 -19.875 
L -6.34375 -13.53125 
L 51.90625 -13.53125 
L 51.90625 -19.875 
z
" id="Arial-ItalicMT-95"/>
      </defs>
      <use xlink:href="#Arial-ItalicMT-99"/>
      <use x="50" xlink:href="#Arial-ItalicMT-115"/>
      <use x="100" xlink:href="#Arial-ItalicMT-97"/>
      <use x="155.615234" xlink:href="#Arial-ItalicMT-95"/>
      <use x="211.230469" xlink:href="#Arial-ItalicMT-99"/>
      <use x="261.230469" xlink:href="#Arial-ItalicMT-115"/>
      <use x="311.230469" xlink:href="#Arial-ItalicMT-97"/>
     </g>
    </g>
    <g id="line2d_21">
     <path d="M 540.970312 80.198325 
L 560.970312 80.198325 
" style="fill:none;stroke:#0000ff;stroke-linecap:square;stroke-width:2;"/>
    </g>
    <g id="line2d_22"/>
    <g id="text_18">
     <!-- vvi_vvi -->
     <g transform="translate(568.970312 83.698325)scale(0.1 -0.1)">
      <defs>
       <path d="M 16.40625 0 
L 7.90625 51.859375 
L 16.5 51.859375 
L 20.953125 23.296875 
Q 21.6875 18.609375 22.75 8.015625 
Q 25.296875 13.53125 29.25 20.65625 
L 46.578125 51.859375 
L 55.90625 51.859375 
L 26.21875 0 
z
" id="Arial-ItalicMT-118"/>
       <path d="M 15.875 61.578125 
L 17.96875 71.578125 
L 26.765625 71.578125 
L 24.65625 61.578125 
z
M 2.984375 0 
L 13.8125 51.859375 
L 22.65625 51.859375 
L 11.8125 0 
z
" id="Arial-ItalicMT-105"/>
      </defs>
      <use xlink:href="#Arial-ItalicMT-118"/>
      <use x="50" xlink:href="#Arial-ItalicMT-118"/>
      <use x="100" xlink:href="#Arial-ItalicMT-105"/>
      <use x="122.216797" xlink:href="#Arial-ItalicMT-95"/>
      <use x="177.832031" xlink:href="#Arial-ItalicMT-118"/>
      <use x="227.832031" xlink:href="#Arial-ItalicMT-118"/>
      <use x="277.832031" xlink:href="#Arial-ItalicMT-105"/>
     </g>
    </g>
    <g id="line2d_23">
     <path d="M 540.970312 94.343637 
L 560.970312 94.343637 
" style="fill:none;stroke:#ffa500;stroke-linecap:square;stroke-width:2;"/>
    </g>
    <g id="line2d_24"/>
    <g id="text_19">
     <!-- vvi_oin_gamma -->
     <g transform="translate(568.970312 97.843637)scale(0.1 -0.1)">
      <defs>
       <path d="M 4.890625 19.671875 
Q 4.890625 34.859375 13.8125 44.828125 
Q 21.1875 53.03125 33.15625 53.03125 
Q 42.53125 53.03125 48.265625 47.171875 
Q 54 41.3125 54 31.34375 
Q 54 22.40625 50.390625 14.71875 
Q 46.78125 7.03125 40.109375 2.921875 
Q 33.453125 -1.171875 26.078125 -1.171875 
Q 20.015625 -1.171875 15.0625 1.40625 
Q 10.109375 4 7.5 8.734375 
Q 4.890625 13.484375 4.890625 19.671875 
z
M 13.71875 20.5625 
Q 13.71875 13.234375 17.234375 9.453125 
Q 20.75 5.671875 26.171875 5.671875 
Q 29 5.671875 31.78125 6.8125 
Q 34.578125 7.953125 36.96875 10.296875 
Q 39.359375 12.640625 41.03125 15.640625 
Q 42.71875 18.65625 43.75 22.125 
Q 45.265625 26.953125 45.265625 31.390625 
Q 45.265625 38.421875 41.71875 42.296875 
Q 38.1875 46.1875 32.8125 46.1875 
Q 28.65625 46.1875 25.234375 44.203125 
Q 21.828125 42.234375 19.0625 38.421875 
Q 16.3125 34.625 15.015625 29.5625 
Q 13.71875 24.515625 13.71875 20.5625 
z
" id="Arial-ItalicMT-111"/>
       <path d="M 3.328125 0 
L 14.15625 51.859375 
L 22.171875 51.859375 
L 20.265625 42.828125 
Q 25.484375 48.140625 30.03125 50.578125 
Q 34.578125 53.03125 39.3125 53.03125 
Q 45.609375 53.03125 49.1875 49.609375 
Q 52.78125 46.1875 52.78125 40.484375 
Q 52.78125 37.59375 51.515625 31.390625 
L 44.921875 0 
L 36.078125 0 
L 42.96875 32.859375 
Q 44 37.640625 44 39.9375 
Q 44 42.53125 42.21875 44.140625 
Q 40.4375 45.75 37.0625 45.75 
Q 30.28125 45.75 24.96875 40.859375 
Q 19.671875 35.984375 17.1875 24.125 
L 12.15625 0 
z
" id="Arial-ItalicMT-110"/>
       <path d="M 2.828125 -4.6875 
L 11.765625 -5.515625 
Q 11.671875 -8.546875 12.5 -10.0625 
Q 13.328125 -11.578125 15.140625 -12.40625 
Q 17.53125 -13.484375 21.34375 -13.484375 
Q 29.34375 -13.484375 32.859375 -9.328125 
Q 35.15625 -6.546875 37.109375 2.78125 
L 37.984375 6.984375 
Q 31.109375 0 23.34375 0 
Q 15.484375 0 10.1875 5.78125 
Q 4.890625 11.578125 4.890625 22.171875 
Q 4.890625 30.90625 9.0625 38.234375 
Q 13.234375 45.5625 18.984375 49.296875 
Q 24.75 53.03125 30.859375 53.03125 
Q 41.0625 53.03125 46.578125 43.359375 
L 48.34375 51.859375 
L 56.453125 51.859375 
L 46 1.8125 
Q 44.28125 -6.453125 41.5 -11.0625 
Q 38.71875 -15.671875 33.765625 -18.203125 
Q 28.8125 -20.75 22.3125 -20.75 
Q 16.0625 -20.75 11.546875 -19.140625 
Q 7.03125 -17.53125 4.8125 -14.421875 
Q 2.59375 -11.328125 2.59375 -7.328125 
Q 2.59375 -6.109375 2.828125 -4.6875 
z
M 13.875 22.953125 
Q 13.875 17.625 14.890625 14.9375 
Q 16.359375 11.1875 19.0625 9.203125 
Q 21.78125 7.234375 25.09375 7.234375 
Q 29.4375 7.234375 33.734375 10.28125 
Q 38.03125 13.328125 40.6875 19.71875 
Q 43.359375 26.125 43.359375 31.9375 
Q 43.359375 38.328125 39.8125 42.109375 
Q 36.28125 45.90625 31.0625 45.90625 
Q 27.828125 45.90625 24.796875 44.171875 
Q 21.78125 42.4375 19.15625 38.890625 
Q 16.546875 35.359375 15.203125 30.421875 
Q 13.875 25.484375 13.875 22.953125 
z
" id="Arial-ItalicMT-103"/>
       <path d="M 3.265625 0 
L 14.109375 51.859375 
L 22.953125 51.859375 
L 21.140625 43.3125 
Q 26.078125 48.828125 29.953125 50.921875 
Q 33.84375 53.03125 38.375 53.03125 
Q 43.21875 53.03125 46.453125 50.46875 
Q 49.703125 47.90625 50.734375 43.3125 
Q 54.6875 48.1875 59.046875 50.609375 
Q 63.421875 53.03125 68.265625 53.03125 
Q 74.75 53.03125 78 49.953125 
Q 81.25 46.875 81.25 41.3125 
Q 81.25 38.921875 80.125 33.40625 
L 73.140625 0 
L 64.3125 0 
L 71.4375 34.28125 
Q 72.359375 38.484375 72.359375 40.28125 
Q 72.359375 42.828125 70.75 44.28125 
Q 69.140625 45.75 66.21875 45.75 
Q 62.25 45.75 58.140625 43.359375 
Q 54.046875 40.96875 51.78125 37.078125 
Q 49.515625 33.203125 47.796875 25.140625 
L 42.53125 0 
L 33.6875 0 
L 41.015625 35.015625 
Q 41.796875 38.578125 41.796875 40.09375 
Q 41.796875 42.625 40.203125 44.1875 
Q 38.625 45.75 36.078125 45.75 
Q 32.328125 45.75 28.203125 43.359375 
Q 24.078125 40.96875 21.484375 36.6875 
Q 18.890625 32.421875 17.234375 24.515625 
L 12.109375 0 
z
" id="Arial-ItalicMT-109"/>
      </defs>
      <use xlink:href="#Arial-ItalicMT-118"/>
      <use x="50" xlink:href="#Arial-ItalicMT-118"/>
      <use x="100" xlink:href="#Arial-ItalicMT-105"/>
      <use x="122.216797" xlink:href="#Arial-ItalicMT-95"/>
      <use x="177.832031" xlink:href="#Arial-ItalicMT-111"/>
      <use x="233.447266" xlink:href="#Arial-ItalicMT-105"/>
      <use x="255.664062" xlink:href="#Arial-ItalicMT-110"/>
      <use x="311.279297" xlink:href="#Arial-ItalicMT-95"/>
      <use x="366.894531" xlink:href="#Arial-ItalicMT-103"/>
      <use x="422.509766" xlink:href="#Arial-ItalicMT-97"/>
      <use x="478.125" xlink:href="#Arial-ItalicMT-109"/>
      <use x="561.425781" xlink:href="#Arial-ItalicMT-109"/>
      <use x="644.726562" xlink:href="#Arial-ItalicMT-97"/>
     </g>
    </g>
    <g id="line2d_25">
     <path d="M 540.970312 108.57645 
L 560.970312 108.57645 
" style="fill:none;stroke:#ffa500;stroke-dasharray:7.4,3.2;stroke-dashoffset:0;stroke-width:2;"/>
    </g>
    <g id="line2d_26"/>
    <g id="text_20">
     <!-- vvi_oin -->
     <g transform="translate(568.970312 112.07645)scale(0.1 -0.1)">
      <use xlink:href="#Arial-ItalicMT-118"/>
      <use x="50" xlink:href="#Arial-ItalicMT-118"/>
      <use x="100" xlink:href="#Arial-ItalicMT-105"/>
      <use x="122.216797" xlink:href="#Arial-ItalicMT-95"/>
      <use x="177.832031" xlink:href="#Arial-ItalicMT-111"/>
      <use x="233.447266" xlink:href="#Arial-ItalicMT-105"/>
      <use x="255.664062" xlink:href="#Arial-ItalicMT-110"/>
     </g>
    </g>
    <g id="line2d_27">
     <path d="M 540.970312 122.721762 
L 560.970312 122.721762 
" style="fill:none;stroke:#008000;stroke-dasharray:7.4,3.2;stroke-dashoffset:0;stroke-width:2;"/>
    </g>
    <g id="line2d_28"/>
    <g id="text_21">
     <!-- vvi_csa -->
     <g transform="translate(568.970312 126.221762)scale(0.1 -0.1)">
      <use xlink:href="#Arial-ItalicMT-118"/>
      <use x="50" xlink:href="#Arial-ItalicMT-118"/>
      <use x="100" xlink:href="#Arial-ItalicMT-105"/>
      <use x="122.216797" xlink:href="#Arial-ItalicMT-95"/>
      <use x="177.832031" xlink:href="#Arial-ItalicMT-99"/>
      <use x="227.832031" xlink:href="#Arial-ItalicMT-115"/>
      <use x="277.832031" xlink:href="#Arial-ItalicMT-97"/>
     </g>
    </g>
   </g>
  </g>
 </g>
 <defs>
  <clipPath id="p7e67f6a3f8">
   <rect height="342.6192" width="558" x="90" y="53.3952"/>
  </clipPath>
 </defs>
</svg>
