<?xml version="1.0" encoding="utf-8"?>
<!-- Generator: Adobe Illustrator 24.2.0, SVG Export Plug-In . SVG Version: 6.00 Build 0)  -->
<svg version="1.1" id="图层_1" xmlns="http://www.w3.org/2000/svg" xmlns:xlink="http://www.w3.org/1999/xlink" x="0px" y="0px"
	 viewBox="0 0 1411.1 456" style="enable-background:new 0 0 1411.1 456;" xml:space="preserve">
<style type="text/css">
	.st0{fill:none;stroke:#4D4D4D;stroke-width:4;stroke-miterlimit:10;}
	.st1{fill:#4D4D4D;stroke:#4D4D4D;stroke-width:4;}
	.st2{fill:#E55636;}
	.st3{fill:#3AB0CC;}
	.st4{fill:#FFFFFF;}
	.st5{font-family:'Arial-BoldMT';}
	.st6{font-size:24px;}
	.st7{enable-background:new    ;}
</style>
<path class="st0" d="M133.3,214.1h61"/>
<circle class="st1" cx="200.3" cy="214.1" r="6"/>
<path class="st2" d="M23.3,183.6h102c5,0,9,4,9,9v42c0,5-4,9-9,9h-102c-5,0-9-4-9-9v-42C14.3,187.6,18.3,183.6,23.3,183.6z"/>
<path class="st0" d="M272.8,233.6v74"/>
<circle class="st1" cx="272.8" cy="313.6" r="6"/>
<path class="st2" d="M221.8,183.6h102c5,0,9,4,9,9v42c0,5-4,9-9,9h-102c-5,0-9-4-9-9v-42C212.8,187.6,216.8,183.6,221.8,183.6z"/>
<path class="st0" d="M470.8,232.6v74"/>
<circle class="st1" cx="470.8" cy="312.6" r="6"/>
<path class="st0" d="M530.3,213.1h43c6.7,0,10,3.3,10,10v48c0,6.7,3.3,10,10,10h44"/>
<circle class="st1" cx="643.3" cy="281.1" r="6"/>
<path class="st2" d="M412.5,184.1h108.2c5.1-0.1,9.4,3.9,9.5,9v42c-0.2,5.1-4.4,9.1-9.5,9H412.5c-5.1,0.1-9.4-3.9-9.5-9v-42
	C403.1,188,407.4,184,412.5,184.1z"/>
<path class="st0" d="M713.3,311.1v66"/>
<circle class="st1" cx="713.3" cy="369.1" r="6"/>
<path class="st0" d="M773.3,281.1h74"/>
<circle class="st1" cx="853.3" cy="281.1" r="6"/>
<path class="st0" d="M713.3,251.1v-52"/>
<circle class="st1" cx="713.3" cy="205.1" r="6"/>
<path class="st0" d="M937.1,248v-52"/>
<circle class="st1" cx="937.3" cy="202" r="6"/>
<path class="st2" d="M662.3,251.1h102c5,0,9,4,9,9v42c0,5-4,9-9,9h-102c-5,0-9-4-9-9v-42C653.3,255.1,657.3,251.1,662.3,251.1z"/>
<path class="st0" d="M1160.3,251.1v-52"/>
<circle class="st1" cx="1160.3" cy="205.1" r="6"/>
<path class="st0" d="M1160.3,311.1v66"/>
<circle class="st1" cx="1160.3" cy="369.1" r="6"/>
<path class="st0" d="M1221.3,281.1h28c6.7,0,10,3.3,10,10v20c0,6.7,3.3,10,10,10h50c6.7,0,10,3.3,10,10v46"/>
<circle class="st1" cx="1329.3" cy="369.1" r="6"/>
<path class="st0" d="M1221.3,281.1h28c6.7,0,10-3.3,10-10v-20c0-6.7,3.3-10,10-10h50c6.7,0,10-3.3,10-10v-32"/>
<circle class="st1" cx="1329.3" cy="205.1" r="6"/>
<path class="st2" d="M1109.3,251.1h102c5,0,9,4,9,9v42c0,5-4,9-9,9h-102c-5,0-9-4-9-9v-42C1100.3,255.1,1104.3,251.1,1109.3,251.1z"
	/>
<path class="st3" d="M1269.3,378.1h102c5,0,9,4,9,9v42c0,5-4,9-9,9h-102c-5,0-9-4-9-9v-42C1260.3,382.1,1264.3,378.1,1269.3,378.1z"
	/>
<path class="st3" d="M1109.3,380.1h102c5,0,9,4,9,9v42c0,5-4,9-9,9h-102c-5,0-9-4-9-9v-42C1100.3,384.1,1104.3,380.1,1109.3,380.1z"
	/>
<path class="st3" d="M1110.3,133.1h102c5,0,9,4,9,9v42c0,5-4,9-9,9h-102c-5,0-9-4-9-9v-42C1101.3,137.1,1105.3,133.1,1110.3,133.1z"
	/>
<path class="st0" d="M713.3,132.1v-61"/>
<circle class="st1" cx="713.3" cy="79.1" r="6"/>
<path class="st3" d="M663.3,133.1h102c5,0,9,4,9,9v42c0,5-4,9-9,9h-102c-5,0-9-4-9-9v-42C654.3,137.1,658.3,133.1,663.3,133.1z"/>
<path class="st3" d="M661.3,6.2h102c5,0,9,4,9,9v42c0,5-4,9-9,9h-102c-5,0-9-4-9-9v-42C652.3,10.2,656.3,6.2,661.3,6.2z"/>
<path class="st3" d="M887.7,5.9h110c5.4,0,9.7,4,9.7,9v42c0,5-4.3,9-9.7,9h-110c-5.4,0-9.7-4-9.7-9v-42C878,9.9,882.3,5.9,887.7,5.9
	z"/>
<path class="st3" d="M662.3,380.1h102c5,0,9,4,9,9v42c0,5-4,9-9,9h-102c-5,0-9-4-9-9v-42C653.3,384.1,657.3,380.1,662.3,380.1z"/>
<path class="st3" d="M221.8,323.6h102c5,0,9,4,9,9v42c0,5-4,9-9,9h-102c-5,0-9-4-9-9v-42C212.8,327.6,216.8,323.6,221.8,323.6z"/>
<path class="st3" d="M1270.7,133.1h101.1c5.2,0,9.4,4.2,9.4,9.4v44.1c0,5.2-4.2,9.4-9.4,9.4h-101.1c-5.2,0-9.4-4.2-9.4-9.4v-44.1
	C1261.3,137.3,1265.5,133.1,1270.7,133.1z"/>
<path class="st0" d="M333.3,214.1l54.8-0.4"/>
<circle class="st1" cx="394.8" cy="213.6" r="6"/>
<path class="st0" d="M493.3,353.1v-1c0-0.7,3.3-1,10-1h70c6.7,0,10-3.3,10-10v-50c0-6.7,3.3-10,10-10h44"/>
<circle class="st1" cx="643.3" cy="281.1" r="6"/>
<path class="st2" d="M419.8,323.6h102c5,0,9,4,9,9v42c0,5-4,9-9,9h-102c-5,0-9-4-9-9v-42C410.8,327.6,414.8,323.6,419.8,323.6z"/>
<path class="st0" d="M777.7,290.4c5.5-6.7,15-8.6,22.7-4.4c7.6,4,10.9,13.1,7.6,21c-3.5,7.9-12.2,12.2-20.6,10.1
	c-8.4-1.9-14.1-9.7-13.3-18.3 M786.5,290.4h-8.8l2.6-9.3"/>
<path class="st0" d="M1022.8,280.6l60.5,0.5"/>
<circle class="st1" cx="1089.3" cy="281.1" r="6"/>
<path class="st2" d="M875.6,248.1h137.3c5.7,0,10.3,4.6,10.3,10.4v48.3c0,5.7-4.6,10.4-10.3,10.4H875.6c-5.7,0-10.3-4.6-10.3-10.4
	v-48.3C865.3,252.7,869.9,248.1,875.6,248.1z"/>
<path class="st0" d="M937.1,130.5v-61"/>
<circle class="st1" cx="937.1" cy="77.5" r="6"/>
<path class="st3" d="M886.6,131.5h109.5c5.4,0,9.7,4,9.7,9v42c0,5-4.3,9-9.7,9H886.6c-5.4,0-9.7-4-9.7-9v-42
	C877,135.5,881.3,131.5,886.6,131.5z"/>
<path class="st4" d="M867.3,44.5V27.3h2.8v9.1l3.2-4.4h3.3l-3.5,4.6l3.7,7.9h-2.9l-2.6-5.6l-1.2,1.6v4H867.3z"/>
<path class="st3" d="M465.3,6.2h102c5,0,9,4,9,9v42c0,5-4,9-9,9h-102c-5,0-9-4-9-9v-42C456.3,10.2,460.3,6.2,465.3,6.2z"/>
<path class="st0" d="M591.5,37.8h60"/>
<circle class="st1" cx="589.5" cy="38.9" r="6"/>
<text transform="matrix(1 0 0 1 945.8082 110.286)" class="st5 st6">-k</text>
<text transform="matrix(1 0 0 1 718.3299 113.9382)" class="st5 st6">-pf</text>
<text transform="matrix(1 0 0 1 607.9821 30.1991)" class="st5 st6">-kf</text>
<text transform="matrix(1 0 0 1 597.0255 275.9382)" class="st5 st6">-bi</text>
<text transform="matrix(1 0 0 1 477.2864 282.9817)" class="st5 st6">-ks</text>
<text transform="matrix(1 0 0 1 282.4168 286.5034)" class="st5 st6">-d</text>
<text transform="matrix(1 0 0 1 345.8082 201.9817)" class="st5 st6">-icl</text>
<text transform="matrix(1 0 0 1 719.8951 347.1556)" class="st5 st6">-bk</text>
<text transform="matrix(1 0 0 1 944.6343 235.8946)" class="st5 st6">-km</text>
<text transform="matrix(1 0 0 1 719.243 238.2424)" class="st5 st6">-kp</text>
<text transform="matrix(1 0 0 1 788.1125 271.112)" class="st5 st6">-pc</text>
<text transform="matrix(1 0 0 1 781.0691 307.112)" class="st5 st6">-c</text>
<text transform="matrix(1 0 0 1 1168.8517 349.7642)" class="st5 st6">-r</text>
<text transform="matrix(1 0 0 1 1123.4604 418.6338)" class="st4 st5 st6">retain</text>
<text transform="matrix(1 0 0 1 673.8517 168.5903)" class="st4 st5 st6">retain</text>
<text transform="matrix(1 0 0 1 403.8517 222.5903)" class="st4 st5 st6">collinearity</text>
<text transform="matrix(1 0 0 1 239.5039 222.5903)" class="st4 st5 st6">blast</text>
<text transform="matrix(1 0 0 1 225.4169 361.1118)" class="st4 st5 st6">dotplot</text>
<text transform="matrix(1 0 0 1 456.6778 361.112)" class="st4 st5 st6">ks</text>
<text transform="matrix(1 0 0 1 26.6883 204.9818)" class="st7"><tspan x="0" y="0" class="st4 st5 st6">genome</tspan><tspan x="22.3" y="28.8" class="st4 st5 st6">data</tspan></text>
<text transform="matrix(1 0 0 1 656.243 417.0686)" class="st4 st5 st6">ks dotplot</text>
<text transform="matrix(1 0 0 1 655.5906 287.9381)" class="st4 st5 st6">blockinfo</text>
<text transform="matrix(1 0 0 1 884.243 276.1989)" class="st7"><tspan x="0" y="0" class="st4 st5 st6">polyploidy</tspan><tspan x="-16" y="28.8" class="st4 st5 st6">classification</tspan></text>
<text transform="matrix(1 0 0 1 1119.2864 169.9811)" class="st4 st5 st6">pindex</text>
<text transform="matrix(1 0 0 1 881.7855 154.329)" class="st7"><tspan x="0" y="0" class="st4 st5 st6">karyotype</tspan><tspan x="3.9" y="28.8" class="st4 st5 st6"> mapping</tspan></text>
<text transform="matrix(1 0 0 1 882.2205 41.5459)" class="st4 st5 st6">karyotype</text>
<text transform="matrix(1 0 0 1 464.814 41.5459)" class="st4 st5 st6">ks figure</text>
<text transform="matrix(1 0 0 1 663.2737 41.5458)" class="st4 st5 st6">peaks fit</text>
<text transform="matrix(1 0 0 1 1282.0691 169.9809)" class="st4 st5 st6">circos</text>
<text transform="matrix(1 0 0 1 1265.0493 400.8947)" class="st7"><tspan x="0" y="0" class="st4 st5 st6">alignment</tspan><tspan x="34.7" y="28.8" class="st4 st5 st6">tree</tspan></text>
<text transform="matrix(1 0 0 1 1103.3103 286.6338)" class="st4 st5 st6">alignment</text>
<text transform="matrix(1 0 0 1 1166.5039 238.2424)" class="st5 st6">-p</text>
<text transform="matrix(1 0 0 1 1040.2429 272.1554)" class="st5 st6">-a</text>
<text transform="matrix(1 0 0 1 1334.3734 354.4598)" class="st5 st6">-at</text>
<text transform="matrix(1 0 0 1 1336.7212 235.8946)" class="st5 st6">-ci</text>
</svg>
